<svg width="202" height="19" viewBox="0 0 202 19" fill="none" xmlns="http://www.w3.org/2000/svg">
<path d="M0.809625 18L8.15363 1.2H13.7216L21.0656 18H15.2096L9.78563 3.888H11.9936L6.56963 18H0.809625ZM5.17763 15.072L6.61763 10.992H14.3456L15.7856 15.072H5.17763ZM26.8204 18.24C25.7004 18.24 24.5964 18.12 23.5084 17.88C22.4204 17.64 21.5404 17.328 20.8684 16.944L22.3564 13.368C22.9804 13.736 23.7004 14.024 24.5164 14.232C25.3484 14.44 26.1564 14.544 26.9404 14.544C27.5964 14.544 28.0364 14.488 28.2604 14.376C28.5004 14.264 28.6204 14.112 28.6204 13.92C28.6204 13.728 28.4844 13.592 28.2124 13.512C27.9404 13.416 27.5804 13.344 27.1324 13.296C26.6844 13.248 26.1884 13.192 25.6444 13.128C25.1164 13.048 24.5804 12.936 24.0364 12.792C23.4924 12.648 22.9964 12.432 22.5484 12.144C22.1004 11.856 21.7404 11.472 21.4684 10.992C21.1964 10.496 21.0604 9.872 21.0604 9.12C21.0604 8.288 21.3084 7.536 21.8044 6.864C22.3164 6.192 23.0684 5.656 24.0604 5.256C25.0684 4.84 26.3084 4.632 27.7804 4.632C28.7404 4.632 29.7004 4.72 30.6604 4.896C31.6204 5.072 32.4444 5.344 33.1324 5.712L31.6444 9.288C30.9724 8.92 30.3084 8.672 29.6524 8.544C29.0124 8.4 28.4124 8.328 27.8524 8.328C27.1644 8.328 26.6924 8.392 26.4364 8.52C26.1964 8.648 26.0764 8.792 26.0764 8.952C26.0764 9.144 26.2124 9.288 26.4844 9.384C26.7564 9.48 27.1164 9.552 27.5644 9.6C28.0124 9.648 28.5004 9.712 29.0284 9.792C29.5724 9.856 30.1084 9.968 30.6364 10.128C31.1804 10.272 31.6764 10.488 32.1244 10.776C32.5724 11.064 32.9324 11.456 33.2044 11.952C33.4764 12.432 33.6124 13.048 33.6124 13.8C33.6124 14.584 33.3644 15.32 32.8684 16.008C32.3724 16.68 31.6204 17.224 30.6124 17.64C29.6044 18.04 28.3404 18.24 26.8204 18.24ZM47.898 8.352H55.29V12.624H47.898V8.352ZM48.282 18H42.618V1.2H56.274V5.472H48.282V18ZM64.9089 18.24C63.3089 18.24 61.9089 17.944 60.7089 17.352C59.5249 16.76 58.6049 15.952 57.9489 14.928C57.2929 13.888 56.9649 12.72 56.9649 11.424C56.9649 10.096 57.2849 8.92 57.9249 7.896C58.5809 6.872 59.4689 6.072 60.5889 5.496C61.7249 4.92 62.9969 4.632 64.4049 4.632C65.7009 4.632 66.8929 4.888 67.9809 5.4C69.0849 5.912 69.9649 6.672 70.6209 7.68C71.2929 8.688 71.6289 9.936 71.6289 11.424C71.6289 11.616 71.6209 11.832 71.6049 12.072C71.5889 12.296 71.5729 12.504 71.5569 12.696H61.4529V10.08H68.6769L66.6369 10.776C66.6369 10.264 66.5409 9.832 66.3489 9.48C66.1729 9.112 65.9249 8.832 65.6049 8.64C65.2849 8.432 64.9009 8.328 64.4529 8.328C64.0049 8.328 63.6129 8.432 63.2769 8.64C62.9569 8.832 62.7089 9.112 62.5329 9.48C62.3569 9.832 62.2689 10.264 62.2689 10.776V11.592C62.2689 12.152 62.3809 12.632 62.6049 13.032C62.8289 13.432 63.1489 13.736 63.5649 13.944C63.9809 14.136 64.4849 14.232 65.0769 14.232C65.6849 14.232 66.1809 14.152 66.5649 13.992C66.9649 13.832 67.3809 13.592 67.8129 13.272L70.6449 16.128C70.0049 16.816 69.2129 17.344 68.2689 17.712C67.3409 18.064 66.2209 18.24 64.9089 18.24ZM80.9331 18V15.672L80.5491 15.048V10.632C80.5491 9.992 80.3491 9.504 79.9491 9.168C79.5651 8.832 78.9331 8.664 78.0531 8.664C77.4611 8.664 76.8611 8.76 76.2531 8.952C75.6451 9.128 75.1251 9.376 74.6931 9.696L72.9651 6.12C73.7331 5.64 74.6531 5.272 75.7251 5.016C76.7971 4.76 77.8451 4.632 78.8691 4.632C81.1251 4.632 82.8691 5.136 84.1011 6.144C85.3491 7.152 85.9731 8.752 85.9731 10.944V18H80.9331ZM77.2131 18.24C76.1411 18.24 75.2451 18.056 74.5251 17.688C73.8051 17.32 73.2611 16.832 72.8931 16.224C72.5251 15.6 72.3411 14.912 72.3411 14.16C72.3411 13.312 72.5571 12.592 72.9891 12C73.4211 11.408 74.0771 10.96 74.9571 10.656C75.8531 10.352 76.9811 10.2 78.3411 10.2H81.0771V12.816H79.2051C78.6291 12.816 78.2051 12.912 77.9331 13.104C77.6771 13.28 77.5491 13.552 77.5491 13.92C77.5491 14.224 77.6611 14.48 77.8851 14.688C78.1251 14.88 78.4451 14.976 78.8451 14.976C79.2131 14.976 79.5491 14.88 79.8531 14.688C80.1731 14.48 80.4051 14.16 80.5491 13.728L81.2451 15.336C81.0371 16.312 80.5971 17.04 79.9251 17.52C79.2531 18 78.3491 18.24 77.2131 18.24ZM94.6532 18.24C92.8452 18.24 91.4372 17.808 90.4292 16.944C89.4212 16.064 88.9172 14.72 88.9172 12.912V1.92H94.3412V12.864C94.3412 13.264 94.4452 13.576 94.6532 13.8C94.8772 14.024 95.1492 14.136 95.4692 14.136C95.9332 14.136 96.3412 14.016 96.6932 13.776L97.9892 17.544C97.5732 17.784 97.0692 17.96 96.4772 18.072C95.9012 18.184 95.2932 18.24 94.6532 18.24ZM87.1172 9.552V5.592H97.0292V9.552H87.1172ZM104.828 18.24C103.788 18.24 102.844 18.032 101.996 17.616C101.164 17.184 100.508 16.52 100.028 15.624C99.5483 14.712 99.3083 13.544 99.3083 12.12V4.872H104.732V11.184C104.732 12.112 104.884 12.76 105.188 13.128C105.492 13.496 105.908 13.68 106.436 13.68C106.756 13.68 107.052 13.6 107.324 13.44C107.612 13.264 107.844 12.984 108.02 12.6C108.196 12.2 108.284 11.68 108.284 11.04V4.872H113.708V18H108.548V14.208L109.58 15.24C109.116 16.264 108.452 17.024 107.588 17.52C106.74 18 105.82 18.24 104.828 18.24ZM116.114 18V4.872H121.274V8.832L120.434 7.704C120.834 6.68 121.474 5.912 122.354 5.4C123.234 4.888 124.29 4.632 125.522 4.632V9.432C125.282 9.4 125.066 9.376 124.874 9.36C124.698 9.344 124.514 9.336 124.322 9.336C123.506 9.336 122.834 9.552 122.306 9.984C121.794 10.4 121.538 11.128 121.538 12.168V18H116.114ZM134.19 18.24C132.59 18.24 131.19 17.944 129.99 17.352C128.806 16.76 127.886 15.952 127.23 14.928C126.574 13.888 126.246 12.72 126.246 11.424C126.246 10.096 126.566 8.92 127.206 7.896C127.862 6.872 128.75 6.072 129.87 5.496C131.006 4.92 132.278 4.632 133.686 4.632C134.982 4.632 136.174 4.888 137.262 5.4C138.366 5.912 139.246 6.672 139.902 7.68C140.574 8.688 140.91 9.936 140.91 11.424C140.91 11.616 140.902 11.832 140.886 12.072C140.87 12.296 140.854 12.504 140.838 12.696H130.734V10.08H137.958L135.918 10.776C135.918 10.264 135.822 9.832 135.63 9.48C135.454 9.112 135.206 8.832 134.886 8.64C134.566 8.432 134.182 8.328 133.734 8.328C133.286 8.328 132.894 8.432 132.558 8.64C132.238 8.832 131.99 9.112 131.814 9.48C131.638 9.832 131.55 10.264 131.55 10.776V11.592C131.55 12.152 131.662 12.632 131.886 13.032C132.11 13.432 132.43 13.736 132.846 13.944C133.262 14.136 133.766 14.232 134.358 14.232C134.966 14.232 135.462 14.152 135.846 13.992C136.246 13.832 136.662 13.592 137.094 13.272L139.926 16.128C139.286 16.816 138.494 17.344 137.55 17.712C136.622 18.064 135.502 18.24 134.19 18.24ZM148.382 18.24C147.246 18.24 146.19 17.968 145.214 17.424C144.254 16.864 143.486 16.08 142.91 15.072C142.334 14.048 142.046 12.832 142.046 11.424C142.046 10.016 142.334 8.808 142.91 7.8C143.486 6.776 144.254 5.992 145.214 5.448C146.19 4.904 147.246 4.632 148.382 4.632C149.534 4.632 150.478 4.88 151.214 5.376C151.95 5.856 152.494 6.6 152.846 7.608C153.198 8.6 153.374 9.872 153.374 11.424C153.374 12.992 153.206 14.28 152.87 15.288C152.55 16.296 152.022 17.04 151.286 17.52C150.566 18 149.598 18.24 148.382 18.24ZM149.678 14.016C150.078 14.016 150.438 13.92 150.758 13.728C151.078 13.536 151.334 13.248 151.526 12.864C151.718 12.464 151.814 11.984 151.814 11.424C151.814 10.848 151.718 10.376 151.526 10.008C151.334 9.624 151.078 9.336 150.758 9.144C150.438 8.952 150.078 8.856 149.678 8.856C149.278 8.856 148.918 8.952 148.598 9.144C148.278 9.336 148.022 9.624 147.83 10.008C147.638 10.376 147.542 10.848 147.542 11.424C147.542 11.984 147.638 12.464 147.83 12.864C148.022 13.248 148.278 13.536 148.598 13.728C148.918 13.92 149.278 14.016 149.678 14.016ZM151.982 18V16.224L151.958 11.424L151.718 6.624V0.191999H157.142V18H151.982ZM175.715 18.384C174.355 18.384 173.091 18.168 171.923 17.736C170.771 17.304 169.771 16.696 168.923 15.912C168.075 15.112 167.411 14.176 166.931 13.104C166.467 12.032 166.235 10.864 166.235 9.6C166.235 8.32 166.467 7.152 166.931 6.096C167.411 5.024 168.075 4.096 168.923 3.312C169.771 2.512 170.771 1.896 171.923 1.464C173.091 1.032 174.355 0.816 175.715 0.816C177.091 0.816 178.355 1.032 179.507 1.464C180.659 1.896 181.659 2.512 182.507 3.312C183.355 4.096 184.011 5.024 184.475 6.096C184.955 7.152 185.195 8.32 185.195 9.6C185.195 10.864 184.955 12.032 184.475 13.104C184.011 14.176 183.355 15.112 182.507 15.912C181.659 16.696 180.659 17.304 179.507 17.736C178.355 18.168 177.091 18.384 175.715 18.384ZM175.715 13.8C176.243 13.8 176.731 13.704 177.179 13.512C177.643 13.32 178.043 13.048 178.379 12.696C178.731 12.328 179.003 11.888 179.195 11.376C179.387 10.848 179.483 10.256 179.483 9.6C179.483 8.944 179.387 8.36 179.195 7.848C179.003 7.32 178.731 6.88 178.379 6.528C178.043 6.16 177.643 5.88 177.179 5.688C176.731 5.496 176.243 5.4 175.715 5.4C175.187 5.4 174.691 5.496 174.227 5.688C173.779 5.88 173.379 6.16 173.027 6.528C172.691 6.88 172.427 7.32 172.235 7.848C172.043 8.36 171.947 8.944 171.947 9.6C171.947 10.256 172.043 10.848 172.235 11.376C172.427 11.888 172.691 12.328 173.027 12.696C173.379 13.048 173.779 13.32 174.227 13.512C174.691 13.704 175.187 13.8 175.715 13.8ZM196.203 4.632C197.211 4.632 198.123 4.84 198.939 5.256C199.755 5.656 200.395 6.288 200.859 7.152C201.339 8.016 201.579 9.136 201.579 10.512V18H196.155V11.448C196.155 10.632 196.011 10.056 195.723 9.72C195.435 9.368 195.043 9.192 194.547 9.192C194.179 9.192 193.835 9.28 193.515 9.456C193.211 9.616 192.963 9.888 192.771 10.272C192.595 10.656 192.507 11.176 192.507 11.832V18H187.083V4.872H192.243V8.712L191.211 7.608C191.723 6.616 192.411 5.872 193.275 5.376C194.155 4.88 195.131 4.632 196.203 4.632Z" fill="url(#paint0_linear_589_5138)"/>
<path d="M0.809625 18L0.351486 17.7997L0.0453673 18.5H0.809625V18ZM8.15363 1.2V0.699999H7.82651L7.69549 0.999727L8.15363 1.2ZM13.7216 1.2L14.1798 0.999727L14.0487 0.699999H13.7216V1.2ZM21.0656 18V18.5H21.8299L21.5238 17.7997L21.0656 18ZM15.2096 18L14.7429 18.1794L14.8661 18.5H15.2096V18ZM9.78563 3.888V3.388H9.05779L9.31891 4.06738L9.78563 3.888ZM11.9936 3.888L12.4603 4.06738L12.7215 3.388H11.9936V3.888ZM6.56963 18V18.5H6.91311L7.03634 18.1794L6.56963 18ZM5.17763 15.072L4.70613 14.9056L4.47093 15.572H5.17763V15.072ZM6.61763 10.992V10.492H6.26387L6.14613 10.8256L6.61763 10.992ZM14.3456 10.992L14.8171 10.8256L14.6994 10.492H14.3456V10.992ZM15.7856 15.072V15.572H16.4923L16.2571 14.9056L15.7856 15.072ZM1.26776 18.2003L8.61176 1.40027L7.69549 0.999727L0.351486 17.7997L1.26776 18.2003ZM8.15363 1.7H13.7216V0.699999H8.15363V1.7ZM13.2635 1.40027L20.6075 18.2003L21.5238 17.7997L14.1798 0.999727L13.2635 1.40027ZM21.0656 17.5H15.2096V18.5H21.0656V17.5ZM15.6763 17.8206L10.2523 3.70862L9.31891 4.06738L14.7429 18.1794L15.6763 17.8206ZM9.78563 4.388H11.9936V3.388H9.78563V4.388ZM11.5269 3.70862L6.10291 17.8206L7.03634 18.1794L12.4603 4.06738L11.5269 3.70862ZM6.56963 17.5H0.809625V18.5H6.56963V17.5ZM5.64912 15.2384L7.08912 11.1584L6.14613 10.8256L4.70613 14.9056L5.64912 15.2384ZM6.61763 11.492H14.3456V10.492H6.61763V11.492ZM13.8741 11.1584L15.3141 15.2384L16.2571 14.9056L14.8171 10.8256L13.8741 11.1584ZM15.7856 14.572H5.17763V15.572H15.7856V14.572ZM23.5084 17.88L23.4007 18.3683L23.5084 17.88ZM20.8684 16.944L20.4067 16.7519L20.2373 17.1592L20.6203 17.3781L20.8684 16.944ZM22.3564 13.368L22.6104 12.9373L22.1155 12.6455L21.8947 13.1759L22.3564 13.368ZM24.5164 14.232L24.3929 14.7165L24.3951 14.7171L24.5164 14.232ZM28.2604 14.376L28.0489 13.9227L28.0368 13.9288L28.2604 14.376ZM28.2124 13.512L28.046 13.9835L28.0585 13.9879L28.0713 13.9917L28.2124 13.512ZM25.6444 13.128L25.5695 13.6224L25.5777 13.6236L25.586 13.6246L25.6444 13.128ZM24.0364 12.792L23.9084 13.2754L24.0364 12.792ZM22.5484 12.144L22.278 12.5646L22.5484 12.144ZM21.4684 10.992L21.0299 11.2324L21.0334 11.2385L21.4684 10.992ZM21.8044 6.864L21.4066 6.56094L21.4021 6.56707L21.8044 6.864ZM24.0604 5.256L24.2474 5.71974L24.2511 5.71819L24.0604 5.256ZM30.6604 4.896L30.5702 5.3878L30.6604 4.896ZM33.1324 5.712L33.594 5.90409L33.7683 5.48513L33.3682 5.27111L33.1324 5.712ZM31.6444 9.288L31.4042 9.72655L31.8922 9.9938L32.106 9.48009L31.6444 9.288ZM29.6524 8.544L29.5426 9.0318L29.5496 9.03337L29.5566 9.03474L29.6524 8.544ZM26.4364 8.52L26.2127 8.07263L26.2011 8.07882L26.4364 8.52ZM26.4844 9.384L26.6508 8.9125L26.4844 9.384ZM27.5644 9.6L27.6176 9.10285L27.5644 9.6ZM29.0284 9.792L28.9535 10.2864L28.9617 10.2876L28.97 10.2886L29.0284 9.792ZM30.6364 10.128L30.4914 10.6065L30.4999 10.6091L30.5084 10.6114L30.6364 10.128ZM32.1244 10.776L32.3948 10.3554V10.3554L32.1244 10.776ZM33.2044 11.952L32.7659 12.1924L32.7694 12.1985L33.2044 11.952ZM32.8684 16.008L33.2707 16.3049L33.274 16.3004L32.8684 16.008ZM30.6124 17.64L30.7968 18.1048L30.8031 18.1022L30.6124 17.64ZM26.8204 17.74C25.7364 17.74 24.6685 17.6239 23.6161 17.3917L23.4007 18.3683C24.5242 18.6161 25.6643 18.74 26.8204 18.74V17.74ZM23.6161 17.3917C22.5577 17.1583 21.7301 16.8605 21.1164 16.5099L20.6203 17.3781C21.3507 17.7955 22.2831 18.1217 23.4007 18.3683L23.6161 17.3917ZM21.33 17.1361L22.818 13.5601L21.8947 13.1759L20.4067 16.7519L21.33 17.1361ZM22.1024 13.7987C22.7731 14.1942 23.5383 14.4987 24.3929 14.7165L24.6399 13.7475C23.8624 13.5493 23.1877 13.2778 22.6104 12.9373L22.1024 13.7987ZM24.3951 14.7171C25.2631 14.9341 26.1119 15.044 26.9404 15.044V14.044C26.2009 14.044 25.4337 13.9459 24.6376 13.7469L24.3951 14.7171ZM26.9404 15.044C27.2805 15.044 27.5772 15.0296 27.8255 14.998C28.0652 14.9675 28.297 14.9167 28.484 14.8232L28.0368 13.9288C27.9998 13.9473 27.8995 13.9805 27.6992 14.006C27.5075 14.0304 27.2562 14.044 26.9404 14.044V15.044ZM28.4718 14.8291C28.8097 14.6714 29.1204 14.3798 29.1204 13.92H28.1204C28.1204 13.915 28.1213 13.9046 28.1258 13.8918C28.1302 13.8791 28.1357 13.871 28.1379 13.8682C28.1397 13.8659 28.1363 13.871 28.1222 13.8813C28.1079 13.8918 28.0846 13.9063 28.0489 13.9229L28.4718 14.8291ZM29.1204 13.92C29.1204 13.6911 29.0335 13.482 28.8719 13.3204C28.7233 13.1718 28.5344 13.0855 28.3535 13.0323L28.0713 13.9917C28.1141 14.0043 28.1413 14.0161 28.1569 14.0244C28.1724 14.0326 28.1723 14.035 28.1648 14.0276C28.1563 14.0191 28.1432 14.0025 28.133 13.978C28.1228 13.9535 28.1204 13.9323 28.1204 13.92H29.1204ZM28.3788 13.0405C28.0558 12.9265 27.6533 12.8489 27.1856 12.7988L27.0791 13.7932C27.5075 13.8391 27.825 13.9055 28.046 13.9835L28.3788 13.0405ZM27.1856 12.7988C26.7397 12.7511 26.2454 12.6953 25.7028 12.6314L25.586 13.6246C26.1313 13.6887 26.6291 13.7449 27.0791 13.7932L27.1856 12.7988ZM25.7193 12.6336C25.2101 12.5565 24.6918 12.4483 24.1643 12.3086L23.9084 13.2754C24.469 13.4237 25.0227 13.5395 25.5695 13.6224L25.7193 12.6336ZM24.1643 12.3086C23.6679 12.1772 23.2204 11.9816 22.8188 11.7234L22.278 12.5646C22.7723 12.8824 23.3168 13.1188 23.9084 13.2754L24.1643 12.3086ZM22.8188 11.7234C22.4414 11.4808 22.1369 11.1576 21.9034 10.7455L21.0334 11.2385C21.3438 11.7864 21.7593 12.2312 22.278 12.5646L22.8188 11.7234ZM21.9068 10.7516C21.6863 10.3496 21.5604 9.81463 21.5604 9.12H20.5604C20.5604 9.92937 20.7064 10.6424 21.03 11.2324L21.9068 10.7516ZM21.5604 9.12C21.5604 8.39532 21.7739 7.7473 22.2067 7.16093L21.4021 6.56707C20.8429 7.3247 20.5604 8.18068 20.5604 9.12H21.5604ZM22.2021 7.16702C22.6469 6.58326 23.3169 6.09491 24.2474 5.71972L23.8734 4.79228C22.8199 5.21709 21.9859 5.80073 21.4067 6.56098L22.2021 7.16702ZM24.2511 5.71819C25.1815 5.33423 26.3523 5.132 27.7804 5.132V4.132C26.2645 4.132 24.9553 4.34577 23.8696 4.79381L24.2511 5.71819ZM27.7804 5.132C28.7096 5.132 29.6395 5.21716 30.5702 5.3878L30.7505 4.4042C29.7613 4.22283 28.7711 4.132 27.7804 4.132V5.132ZM30.5702 5.3878C31.4915 5.55671 32.264 5.81453 32.8965 6.15289L33.3682 5.27111C32.6248 4.87347 31.7492 4.58729 30.7505 4.4042L30.5702 5.3878ZM32.6707 5.51991L31.1827 9.09591L32.106 9.48009L33.594 5.90409L32.6707 5.51991ZM31.8845 8.84945C31.1739 8.46027 30.4614 8.19244 29.7481 8.05325L29.5566 9.03474C30.1553 9.15156 30.7709 9.37973 31.4042 9.72655L31.8845 8.84945ZM29.7621 8.05619C29.0921 7.90543 28.455 7.828 27.8524 7.828V8.828C28.3698 8.828 28.9327 8.89457 29.5426 9.0318L29.7621 8.05619ZM27.8524 7.828C27.4948 7.828 27.1808 7.84451 26.9152 7.88053C26.6559 7.91569 26.4118 7.97328 26.2128 8.07279L26.66 8.96721C26.717 8.93872 26.8369 8.9003 27.0496 8.87147C27.2559 8.84349 27.5219 8.828 27.8524 8.828V7.828ZM26.2011 8.07882C25.9172 8.23024 25.5764 8.50324 25.5764 8.952H26.5764C26.5764 8.9762 26.5715 8.9994 26.564 9.01858C26.5568 9.03679 26.5496 9.0451 26.5505 9.04409C26.5517 9.04267 26.5598 9.03339 26.5803 9.01793C26.6007 9.00255 26.6303 8.98327 26.6717 8.96118L26.2011 8.07882ZM25.5764 8.952C25.5764 9.18007 25.6623 9.38575 25.8149 9.54731C25.9566 9.6974 26.1387 9.79224 26.318 9.85549L26.6508 8.9125C26.6067 8.89696 26.5775 8.88269 26.5594 8.87203C26.5414 8.86142 26.538 8.85653 26.5419 8.86069C26.5466 8.86571 26.5569 8.87859 26.5653 8.8994C26.5739 8.92049 26.5764 8.93957 26.5764 8.952H25.5764ZM26.318 9.85549C26.641 9.9695 27.0435 10.0471 27.5111 10.0972L27.6176 9.10285C27.1893 9.05695 26.8718 8.99049 26.6508 8.9125L26.318 9.85549ZM27.5111 10.0972C27.9507 10.1443 28.4314 10.2073 28.9535 10.2864L29.1033 9.29764C28.5694 9.21675 28.074 9.15175 27.6176 9.10285L27.5111 10.0972ZM28.97 10.2886C29.4844 10.3491 29.9914 10.455 30.4914 10.6065L30.7814 9.64949C30.2253 9.48098 29.6603 9.3629 29.0868 9.29542L28.97 10.2886ZM30.5084 10.6114C31.0048 10.7428 31.4523 10.9384 31.854 11.1966L32.3948 10.3554C31.9004 10.0376 31.3559 9.80125 30.7643 9.64465L30.5084 10.6114ZM31.854 11.1966C32.2275 11.4367 32.5315 11.7649 32.766 12.1924L33.6428 11.7116C33.3332 11.1471 32.9173 10.6913 32.3948 10.3554L31.854 11.1966ZM32.7694 12.1985C32.9861 12.5809 33.1124 13.1044 33.1124 13.8H34.1124C34.1124 12.9916 33.9667 12.2831 33.6394 11.7055L32.7694 12.1985ZM33.1124 13.8C33.1124 14.4703 32.9027 15.1054 32.4628 15.7156L33.274 16.3004C33.826 15.5346 34.1124 14.6977 34.1124 13.8H33.1124ZM32.4661 15.7111C32.0384 16.2905 31.3705 16.7862 30.4216 17.1778L30.8031 18.1022C31.8702 17.6618 32.7064 17.0695 33.2707 16.3049L32.4661 15.7111ZM30.428 17.1753C29.4971 17.5446 28.3007 17.74 26.8204 17.74V18.74C28.38 18.74 29.7116 18.5354 30.7968 18.1047L30.428 17.1753ZM47.898 8.352V7.852H47.398V8.352H47.898ZM55.29 8.352H55.79V7.852H55.29V8.352ZM55.29 12.624V13.124H55.79V12.624H55.29ZM47.898 12.624H47.398V13.124H47.898V12.624ZM48.282 18V18.5H48.782V18H48.282ZM42.618 18H42.118V18.5H42.618V18ZM42.618 1.2V0.699999H42.118V1.2H42.618ZM56.274 1.2H56.774V0.699999H56.274V1.2ZM56.274 5.472V5.972H56.774V5.472H56.274ZM48.282 5.472V4.972H47.782V5.472H48.282ZM47.898 8.852H55.29V7.852H47.898V8.852ZM54.79 8.352V12.624H55.79V8.352H54.79ZM55.29 12.124H47.898V13.124H55.29V12.124ZM48.398 12.624V8.352H47.398V12.624H48.398ZM48.282 17.5H42.618V18.5H48.282V17.5ZM43.118 18V1.2H42.118V18H43.118ZM42.618 1.7H56.274V0.699999H42.618V1.7ZM55.774 1.2V5.472H56.774V1.2H55.774ZM56.274 4.972H48.282V5.972H56.274V4.972ZM47.782 5.472V18H48.782V5.472H47.782ZM60.7089 17.352L60.4853 17.7992L60.4877 17.8004L60.7089 17.352ZM57.9489 14.928L57.526 15.1948L57.5279 15.1977L57.9489 14.928ZM57.9249 7.896L57.5039 7.62627L57.5009 7.631L57.9249 7.896ZM60.5889 5.496L60.3628 5.05004L60.3603 5.05136L60.5889 5.496ZM67.9809 5.4L67.768 5.85242L67.7706 5.85359L67.9809 5.4ZM70.6209 7.68L70.2018 7.95274L70.2049 7.95735L70.6209 7.68ZM71.6049 12.072L72.1037 12.1076L72.1038 12.1053L71.6049 12.072ZM71.5569 12.696V13.196H72.017L72.0552 12.7375L71.5569 12.696ZM61.4529 12.696H60.9529V13.196H61.4529V12.696ZM61.4529 10.08V9.58H60.9529V10.08H61.4529ZM68.6769 10.08L68.8384 10.5532L68.6769 9.58V10.08ZM66.6369 10.776H66.1369V11.4749L66.7984 11.2492L66.6369 10.776ZM66.3489 9.48L65.8979 9.69573L65.9036 9.70774L65.91 9.71943L66.3489 9.48ZM65.6049 8.64L65.3324 9.05922L65.34 9.06412L65.3477 9.06875L65.6049 8.64ZM63.2769 8.64L63.5342 9.06879L63.5401 9.06513L63.2769 8.64ZM62.5329 9.48L62.9802 9.70364L62.984 9.69573L62.5329 9.48ZM62.6049 13.032L63.0412 12.7877L62.6049 13.032ZM63.5649 13.944L63.3413 14.3912L63.3483 14.3947L63.3554 14.398L63.5649 13.944ZM66.5649 13.992L66.3792 13.5277L66.3726 13.5305L66.5649 13.992ZM67.8129 13.272L68.168 12.9199L67.8632 12.6126L67.5153 12.8702L67.8129 13.272ZM70.6449 16.128L71.011 16.4686L71.3381 16.1169L71 15.7759L70.6449 16.128ZM68.2689 17.712L68.4463 18.1795L68.4505 18.1779L68.2689 17.712ZM64.9089 17.74C63.3708 17.74 62.0492 17.4556 60.9301 16.9036L60.4877 17.8004C61.7687 18.4324 63.2471 18.74 64.9089 18.74V17.74ZM60.9325 16.9048C59.8218 16.3494 58.9731 15.5998 58.37 14.6583L57.5279 15.1977C58.2368 16.3042 59.2281 17.1706 60.4853 17.7992L60.9325 16.9048ZM58.3718 14.6612C57.769 13.7055 57.4649 12.6309 57.4649 11.424H56.4649C56.4649 12.8091 56.8169 14.0705 57.526 15.1948L58.3718 14.6612ZM57.4649 11.424C57.4649 10.18 57.7635 9.09771 58.3489 8.161L57.5009 7.631C56.8064 8.74229 56.4649 10.012 56.4649 11.424H57.4649ZM58.346 8.16571C58.9526 7.21868 59.7731 6.47782 60.8176 5.94064L60.3603 5.05136C59.1648 5.66618 58.2092 6.52532 57.5039 7.62629L58.346 8.16571ZM60.8151 5.94195C61.8738 5.4051 63.0671 5.132 64.4049 5.132V4.132C62.9268 4.132 61.576 4.4349 60.3628 5.05005L60.8151 5.94195ZM64.4049 5.132C65.6332 5.132 66.7517 5.37414 67.768 5.85241L68.1938 4.94759C67.0342 4.40186 65.7687 4.132 64.4049 4.132V5.132ZM67.7706 5.85359C68.7905 6.32659 69.5977 7.0244 70.2019 7.95273L71.04 7.40727C70.3322 6.3196 69.3794 5.49741 68.1913 4.94641L67.7706 5.85359ZM70.2049 7.95735C70.8108 8.86617 71.1289 10.012 71.1289 11.424H72.1289C72.1289 9.85999 71.7751 8.50983 71.037 7.40265L70.2049 7.95735ZM71.1289 11.424C71.1289 11.6026 71.1215 11.8072 71.106 12.0387L72.1038 12.1053C72.1204 11.8568 72.1289 11.6294 72.1289 11.424H71.1289ZM71.1062 12.0364C71.0903 12.2587 71.0745 12.4647 71.0587 12.6545L72.0552 12.7375C72.0714 12.5433 72.0875 12.3333 72.1037 12.1076L71.1062 12.0364ZM71.5569 12.196H61.4529V13.196H71.5569V12.196ZM61.9529 12.696V10.08H60.9529V12.696H61.9529ZM61.4529 10.58H68.6769V9.58H61.4529V10.58ZM68.5155 9.60678L66.4755 10.3028L66.7984 11.2492L68.8384 10.5532L68.5155 9.60678ZM67.1369 10.776C67.1369 10.203 67.0295 9.6836 66.7879 9.24057L65.91 9.71943C66.0523 9.9804 66.1369 10.325 66.1369 10.776H67.1369ZM66.8 9.26427C66.5858 8.81638 66.2741 8.4584 65.8622 8.21125L65.3477 9.06875C65.5758 9.2056 65.7601 9.40762 65.8979 9.69573L66.8 9.26427ZM65.8774 8.22078C65.4631 7.95144 64.9805 7.828 64.4529 7.828V8.828C64.8213 8.828 65.1068 8.91256 65.3324 9.05922L65.8774 8.22078ZM64.4529 7.828C63.9247 7.828 63.439 7.95163 63.0138 8.21487L63.5401 9.06513C63.7869 8.91237 64.0852 8.828 64.4529 8.828V7.828ZM63.0197 8.21125C62.6078 8.4584 62.2961 8.81638 62.0819 9.26427L62.984 9.69573C63.1218 9.40762 63.3061 9.2056 63.5342 9.06875L63.0197 8.21125ZM62.0857 9.25639C61.8662 9.69549 61.7689 10.2089 61.7689 10.776H62.7689C62.7689 10.3191 62.8477 9.96851 62.9802 9.70361L62.0857 9.25639ZM61.7689 10.776V11.592H62.7689V10.776H61.7689ZM61.7689 11.592C61.7689 12.2187 61.8946 12.7868 62.1687 13.2763L63.0412 12.7877C62.8673 12.4772 62.7689 12.0853 62.7689 11.592H61.7689ZM62.1687 13.2763C62.4424 13.7651 62.8371 14.1391 63.3413 14.3912L63.7885 13.4968C63.4608 13.3329 63.2155 13.0989 63.0412 12.7877L62.1687 13.2763ZM63.3554 14.398C63.8533 14.6278 64.4329 14.732 65.0769 14.732V13.732C64.537 13.732 64.1085 13.6442 63.7745 13.49L63.3554 14.398ZM65.0769 14.732C65.7231 14.732 66.291 14.6478 66.7572 14.4535L66.3726 13.5305C66.0709 13.6562 65.6468 13.732 65.0769 13.732V14.732ZM66.7506 14.4562C67.1989 14.2769 67.6522 14.0133 68.1105 13.6738L67.5153 12.8702C67.1097 13.1707 66.731 13.3871 66.3792 13.5278L66.7506 14.4562ZM67.4579 13.6241L70.2899 16.4801L71 15.7759L68.168 12.9199L67.4579 13.6241ZM70.2788 15.7874C69.6941 16.4161 68.9668 16.9033 68.0873 17.2461L68.4505 18.1779C69.4591 17.7847 70.3158 17.2159 71.011 16.4686L70.2788 15.7874ZM68.0916 17.2445C67.2352 17.5693 66.1788 17.74 64.9089 17.74V18.74C66.2631 18.74 67.4466 18.5587 68.4463 18.1795L68.0916 17.2445ZM80.9331 18H80.4331V18.5H80.9331V18ZM80.9331 15.672H81.4331V15.5305L81.3589 15.41L80.9331 15.672ZM80.5491 15.048H80.0491V15.1895L80.1232 15.31L80.5491 15.048ZM79.9491 9.168L79.6197 9.54436L79.6275 9.55085L79.9491 9.168ZM76.2531 8.952L76.3921 9.43242L76.4036 9.42879L76.2531 8.952ZM74.6931 9.696L74.2429 9.91354L74.5055 10.4571L74.9907 10.0978L74.6931 9.696ZM72.9651 6.12L72.7001 5.696L72.3197 5.93371L72.5149 6.33754L72.9651 6.12ZM75.7251 5.016L75.8412 5.50233L75.7251 5.016ZM84.1011 6.144L83.7844 6.53099L83.7869 6.53297L84.1011 6.144ZM85.9731 18V18.5H86.4731V18H85.9731ZM74.5251 17.688L74.2975 18.1332L74.5251 17.688ZM72.8931 16.224L72.4623 16.478L72.4653 16.4829L72.8931 16.224ZM72.9891 12L73.393 12.2947L72.9891 12ZM74.9571 10.656L74.7964 10.1825L74.7938 10.1834L74.9571 10.656ZM81.0771 10.2H81.5771V9.7H81.0771V10.2ZM81.0771 12.816V13.316H81.5771V12.816H81.0771ZM77.9331 13.104L78.2163 13.5161L78.2214 13.5125L77.9331 13.104ZM77.8851 14.688L77.5448 15.0544L77.5583 15.0669L77.5727 15.0784L77.8851 14.688ZM79.8531 14.688L80.1201 15.1108L80.1256 15.1072L79.8531 14.688ZM80.5491 13.728L81.0079 13.5294L80.4883 12.329L80.0747 13.5699L80.5491 13.728ZM81.2451 15.336L81.7341 15.4402L81.7674 15.284L81.7039 15.1374L81.2451 15.336ZM79.9251 17.52L79.6344 17.1131L79.9251 17.52ZM81.4331 18V15.672H80.4331V18H81.4331ZM81.3589 15.41L80.9749 14.786L80.1232 15.31L80.5072 15.934L81.3589 15.41ZM81.0491 15.048V10.632H80.0491V15.048H81.0491ZM81.0491 10.632C81.0491 9.88068 80.8089 9.2373 80.2707 8.78515L79.6275 9.55085C79.8892 9.7707 80.0491 10.1033 80.0491 10.632H81.0491ZM80.2783 8.79171C79.7569 8.33551 78.974 8.164 78.0531 8.164V9.164C78.8922 9.164 79.3732 9.32849 79.6198 9.54429L80.2783 8.79171ZM78.0531 8.164C77.4062 8.164 76.7555 8.26901 76.1025 8.47521L76.4036 9.42879C76.9667 9.25099 77.5159 9.164 78.0531 9.164V8.164ZM76.114 8.47172C75.4588 8.66138 74.8829 8.93317 74.3954 9.29422L74.9907 10.0978C75.3673 9.81883 75.8313 9.59462 76.3921 9.43228L76.114 8.47172ZM75.1433 9.47846L73.4153 5.90246L72.5149 6.33754L74.2429 9.91354L75.1433 9.47846ZM73.2301 6.544C73.9434 6.09815 74.8108 5.74838 75.8412 5.50233L75.6089 4.52967C74.4953 4.79562 73.5227 5.18185 72.7001 5.696L73.2301 6.544ZM75.8412 5.50233C76.878 5.25472 77.887 5.132 78.8691 5.132V4.132C77.8031 4.132 76.7161 4.26528 75.6089 4.52967L75.8412 5.50233ZM78.8691 5.132C81.0569 5.132 82.6726 5.62126 83.7844 6.53098L84.4177 5.75702C83.0656 4.65074 81.1932 4.132 78.8691 4.132V5.132ZM83.7869 6.53297C84.8783 7.41445 85.4731 8.84436 85.4731 10.944H86.4731C86.4731 8.65964 85.8199 6.88955 84.4152 5.75503L83.7869 6.53297ZM85.4731 10.944V18H86.4731V10.944H85.4731ZM85.9731 17.5H80.9331V18.5H85.9731V17.5ZM77.2131 17.74C76.1954 17.74 75.383 17.565 74.7526 17.2428L74.2975 18.1332C75.1071 18.547 76.0867 18.74 77.2131 18.74V17.74ZM74.7526 17.2428C74.1037 16.9111 73.6343 16.4831 73.3208 15.9651L72.4653 16.4829C72.8878 17.1809 73.5064 17.7289 74.2975 18.1332L74.7526 17.2428ZM73.3237 15.97C73.0029 15.426 72.8411 14.8262 72.8411 14.16H71.8411C71.8411 14.9978 72.0472 15.774 72.4624 16.478L73.3237 15.97ZM72.8411 14.16C72.8411 13.4007 73.0329 12.7882 73.393 12.2947L72.5852 11.7053C72.0813 12.3958 71.8411 13.2233 71.8411 14.16H72.8411ZM73.393 12.2947C73.7503 11.805 74.3107 11.4083 75.1203 11.1286L74.7938 10.1834C73.8434 10.5117 73.0918 11.011 72.5852 11.7053L73.393 12.2947ZM75.1177 11.1295C75.9447 10.8489 77.0139 10.7 78.3411 10.7V9.7C76.9482 9.7 75.7614 9.85511 74.7964 10.1825L75.1177 11.1295ZM78.3411 10.7H81.0771V9.7H78.3411V10.7ZM80.5771 10.2V12.816H81.5771V10.2H80.5771ZM81.0771 12.316H79.2051V13.316H81.0771V12.316ZM79.2051 12.316C78.5928 12.316 78.043 12.4144 77.6447 12.6955L78.2214 13.5125C78.3672 13.4096 78.6653 13.316 79.2051 13.316V12.316ZM77.6498 12.692C77.2317 12.9794 77.0491 13.4222 77.0491 13.92H78.0491C78.0491 13.6818 78.1224 13.5806 78.2163 13.516L77.6498 12.692ZM77.0491 13.92C77.0491 14.3639 77.2196 14.7524 77.5448 15.0544L78.2253 14.3216C78.1025 14.2076 78.0491 14.0841 78.0491 13.92H77.0491ZM77.5727 15.0784C77.925 15.3603 78.3661 15.476 78.8451 15.476V14.476C78.524 14.476 78.3251 14.3997 78.1974 14.2976L77.5727 15.0784ZM78.8451 15.476C79.3052 15.476 79.7342 15.3545 80.1201 15.1107L79.5861 14.2653C79.3639 14.4056 79.1209 14.476 78.8451 14.476V15.476ZM80.1256 15.1072C80.5579 14.8262 80.8508 14.404 81.0234 13.8861L80.0747 13.5699C79.9593 13.916 79.7883 14.1338 79.5806 14.2688L80.1256 15.1072ZM80.0902 13.9266L80.7862 15.5346L81.7039 15.1374L81.0079 13.5294L80.0902 13.9266ZM80.756 15.2318C80.5684 16.1125 80.1845 16.7202 79.6344 17.1131L80.2157 17.9269C81.0096 17.3598 81.5058 16.5115 81.7341 15.4402L80.756 15.2318ZM79.6344 17.1131C79.0738 17.5136 78.2831 17.74 77.2131 17.74V18.74C78.4151 18.74 79.4323 18.4864 80.2157 17.9269L79.6344 17.1131ZM90.4292 16.944L90.1003 17.3207L90.1038 17.3236L90.4292 16.944ZM88.9172 1.92V1.42H88.4172V1.92H88.9172ZM94.3412 1.92H94.8412V1.42H94.3412V1.92ZM94.6532 13.8L94.2868 14.1402L94.2931 14.147L94.2996 14.1536L94.6532 13.8ZM96.6932 13.776L97.166 13.6134L96.9529 12.9938L96.4115 13.3629L96.6932 13.776ZM97.9892 17.544L98.2391 17.9771L98.5961 17.7711L98.462 17.3814L97.9892 17.544ZM96.4772 18.072L96.3842 17.5807L96.3818 17.5812L96.4772 18.072ZM87.1172 9.552H86.6172V10.052H87.1172V9.552ZM87.1172 5.592V5.092H86.6172V5.592H87.1172ZM97.0292 5.592H97.5292V5.092H97.0292V5.592ZM97.0292 9.552V10.052H97.5292V9.552H97.0292ZM94.6532 17.74C92.9212 17.74 91.6438 17.3265 90.7546 16.5644L90.1038 17.3236C91.2306 18.2895 92.7691 18.74 94.6532 18.74V17.74ZM90.758 16.5673C89.8933 15.8125 89.4172 14.6289 89.4172 12.912H88.4172C88.4172 14.8111 88.949 16.3155 90.1004 17.3207L90.758 16.5673ZM89.4172 12.912V1.92H88.4172V12.912H89.4172ZM88.9172 2.42H94.3412V1.42H88.9172V2.42ZM93.8412 1.92V12.864H94.8412V1.92H93.8412ZM93.8412 12.864C93.8412 13.3502 93.9691 13.7981 94.2868 14.1402L95.0196 13.4598C94.9213 13.3539 94.8412 13.1778 94.8412 12.864H93.8412ZM94.2996 14.1536C94.6185 14.4724 95.0181 14.636 95.4692 14.636V13.636C95.2803 13.636 95.1359 13.5756 95.0067 13.4464L94.2996 14.1536ZM95.4692 14.636C96.0243 14.636 96.5324 14.4908 96.9749 14.1891L96.4115 13.3629C96.15 13.5412 95.8421 13.636 95.4692 13.636V14.636ZM96.2204 13.9386L97.5164 17.7066L98.462 17.3814L97.166 13.6134L96.2204 13.9386ZM97.7393 17.1109C97.3826 17.3167 96.9345 17.4766 96.3842 17.5807L96.5701 18.5633C97.2039 18.4434 97.7638 18.2513 98.2391 17.9771L97.7393 17.1109ZM96.3818 17.5812C95.8399 17.6866 95.264 17.74 94.6532 17.74V18.74C95.3224 18.74 95.9625 18.6814 96.5726 18.5628L96.3818 17.5812ZM87.6172 9.552V5.592H86.6172V9.552H87.6172ZM87.1172 6.092H97.0292V5.092H87.1172V6.092ZM96.5292 5.592V9.552H97.5292V5.592H96.5292ZM97.0292 9.052H87.1172V10.052H97.0292V9.052ZM101.996 17.616L101.766 18.0599L101.776 18.0649L101.996 17.616ZM100.028 15.624L99.5858 15.8569L99.5875 15.8601L100.028 15.624ZM99.3083 4.872V4.372H98.8083V4.872H99.3083ZM104.732 4.872H105.232V4.372H104.732V4.872ZM107.324 13.44L107.578 13.871L107.585 13.8666L107.324 13.44ZM108.02 12.6L108.475 12.8084L108.478 12.8014L108.02 12.6ZM108.284 4.872V4.372H107.784V4.872H108.284ZM113.708 4.872H114.208V4.372H113.708V4.872ZM113.708 18V18.5H114.208V18H113.708ZM108.548 18H108.048V18.5H108.548V18ZM108.548 14.208L108.902 13.8544L108.048 13.0009V14.208H108.548ZM109.58 15.24L110.036 15.4464L110.179 15.1312L109.934 14.8864L109.58 15.24ZM107.588 17.52L107.835 17.9551L107.837 17.9536L107.588 17.52ZM104.828 17.74C103.857 17.74 102.989 17.5462 102.216 17.1671L101.776 18.0649C102.699 18.5178 103.72 18.74 104.828 18.74V17.74ZM102.227 17.1723C101.492 16.7906 100.906 16.2029 100.469 15.3879L99.5875 15.8601C100.111 16.8371 100.837 17.5774 101.766 18.0597L102.227 17.1723ZM100.471 15.3911C100.04 14.5731 99.8083 13.4922 99.8083 12.12H98.8083C98.8083 13.5958 99.0564 14.8509 99.5858 15.8569L100.471 15.3911ZM99.8083 12.12V4.872H98.8083V12.12H99.8083ZM99.3083 5.372H104.732V4.372H99.3083V5.372ZM104.232 4.872V11.184H105.232V4.872H104.232ZM104.232 11.184C104.232 12.1341 104.381 12.9363 104.803 13.4464L105.574 12.8096C105.387 12.5837 105.232 12.0899 105.232 11.184H104.232ZM104.803 13.4464C105.213 13.9426 105.777 14.18 106.436 14.18V13.18C106.039 13.18 105.772 13.0494 105.574 12.8096L104.803 13.4464ZM106.436 14.18C106.844 14.18 107.228 14.0768 107.578 13.871L107.071 13.009C106.877 13.1232 106.668 13.18 106.436 13.18V14.18ZM107.585 13.8666C107.977 13.6271 108.268 13.26 108.475 12.8083L107.566 12.3917C107.421 12.708 107.248 12.9009 107.064 13.0134L107.585 13.8666ZM108.478 12.8014C108.692 12.3155 108.784 11.7198 108.784 11.04H107.784C107.784 11.6402 107.701 12.0845 107.563 12.3986L108.478 12.8014ZM108.784 11.04V4.872H107.784V11.04H108.784ZM108.284 5.372H113.708V4.372H108.284V5.372ZM113.208 4.872V18H114.208V4.872H113.208ZM113.708 17.5H108.548V18.5H113.708V17.5ZM109.048 18V14.208H108.048V18H109.048ZM108.195 14.5616L109.227 15.5936L109.934 14.8864L108.902 13.8544L108.195 14.5616ZM109.125 15.0336C108.698 15.9749 108.101 16.6492 107.339 17.0864L107.837 17.9536C108.804 17.3988 109.534 16.5531 110.036 15.4464L109.125 15.0336ZM107.342 17.0849C106.57 17.5216 105.736 17.74 104.828 17.74V18.74C105.905 18.74 106.91 18.4784 107.835 17.9551L107.342 17.0849ZM116.114 18H115.614V18.5H116.114V18ZM116.114 4.872V4.372H115.614V4.872H116.114ZM121.274 4.872H121.774V4.372H121.274V4.872ZM121.274 8.832L120.873 9.13063L121.774 10.3406V8.832H121.274ZM120.434 7.704L119.968 7.52207L119.867 7.78029L120.033 8.00263L120.434 7.704ZM122.354 5.4L122.103 4.96782L122.354 5.4ZM125.522 4.632H126.022V4.132H125.522V4.632ZM125.522 9.432L125.456 9.92761L126.022 10.0031V9.432H125.522ZM124.874 9.36L124.829 9.85796L124.833 9.85827L124.874 9.36ZM122.306 9.984L122.621 10.3721L122.623 10.371L122.306 9.984ZM121.538 18V18.5H122.038V18H121.538ZM116.614 18V4.872H115.614V18H116.614ZM116.114 5.372H121.274V4.372H116.114V5.372ZM120.774 4.872V8.832H121.774V4.872H120.774ZM121.675 8.53337L120.835 7.40537L120.033 8.00263L120.873 9.13063L121.675 8.53337ZM120.9 7.88593C121.262 6.95818 121.831 6.2827 122.606 5.83217L122.103 4.96782C121.117 5.5413 120.406 6.40182 119.968 7.52207L120.9 7.88593ZM122.606 5.83217C123.395 5.37307 124.36 5.132 125.522 5.132V4.132C124.22 4.132 123.074 4.40292 122.103 4.96782L122.606 5.83217ZM125.022 4.632V9.432H126.022V4.632H125.022ZM125.588 8.93639C125.342 8.90356 125.118 8.87856 124.916 8.86173L124.833 9.85827C125.015 9.87344 125.222 9.89644 125.456 9.92761L125.588 8.93639ZM124.919 8.86205C124.727 8.84457 124.528 8.836 124.322 8.836V9.836C124.5 9.836 124.669 9.84343 124.829 9.85795L124.919 8.86205ZM124.322 8.836C123.414 8.836 122.623 9.07829 121.989 9.59702L122.623 10.371C123.045 10.0257 123.598 9.836 124.322 9.836V8.836ZM121.991 9.59594C121.308 10.1507 121.038 11.0643 121.038 12.168H122.038C122.038 11.1917 122.28 10.6493 122.621 10.3721L121.991 9.59594ZM121.038 12.168V18H122.038V12.168H121.038ZM121.538 17.5H116.114V18.5H121.538V17.5ZM129.99 17.352L129.767 17.7992L129.769 17.8004L129.99 17.352ZM127.23 14.928L126.807 15.1948L126.809 15.1977L127.23 14.928ZM127.206 7.896L126.785 7.62627L126.782 7.631L127.206 7.896ZM129.87 5.496L129.644 5.05004L129.642 5.05136L129.87 5.496ZM137.262 5.4L137.049 5.85242L137.052 5.85359L137.262 5.4ZM139.902 7.68L139.483 7.95274L139.486 7.95735L139.902 7.68ZM140.886 12.072L141.385 12.1076L141.385 12.1053L140.886 12.072ZM140.838 12.696V13.196H141.298L141.336 12.7375L140.838 12.696ZM130.734 12.696H130.234V13.196H130.734V12.696ZM130.734 10.08V9.58H130.234V10.08H130.734ZM137.958 10.08L138.12 10.5532L137.958 9.58V10.08ZM135.918 10.776H135.418V11.4749L136.08 11.2492L135.918 10.776ZM135.63 9.48L135.179 9.69573L135.185 9.70774L135.191 9.71943L135.63 9.48ZM134.886 8.64L134.614 9.05922L134.621 9.06412L134.629 9.06875L134.886 8.64ZM132.558 8.64L132.815 9.06879L132.821 9.06513L132.558 8.64ZM131.814 9.48L132.261 9.70364L132.265 9.69573L131.814 9.48ZM131.886 13.032L132.322 12.7877L131.886 13.032ZM132.846 13.944L132.623 14.3912L132.63 14.3947L132.637 14.398L132.846 13.944ZM135.846 13.992L135.66 13.5277L135.654 13.5305L135.846 13.992ZM137.094 13.272L137.449 12.9199L137.144 12.6126L136.797 12.8702L137.094 13.272ZM139.926 16.128L140.292 16.4686L140.619 16.1169L140.281 15.7759L139.926 16.128ZM137.55 17.712L137.728 18.1795L137.732 18.1779L137.55 17.712ZM134.19 17.74C132.652 17.74 131.33 17.4556 130.211 16.9036L129.769 17.8004C131.05 18.4324 132.528 18.74 134.19 18.74V17.74ZM130.214 16.9048C129.103 16.3494 128.254 15.5998 127.651 14.6583L126.809 15.1977C127.518 16.3042 128.509 17.1706 129.767 17.7992L130.214 16.9048ZM127.653 14.6612C127.05 13.7055 126.746 12.6309 126.746 11.424H125.746C125.746 12.8091 126.098 14.0705 126.807 15.1948L127.653 14.6612ZM126.746 11.424C126.746 10.18 127.045 9.09771 127.63 8.161L126.782 7.631C126.088 8.74229 125.746 10.012 125.746 11.424H126.746ZM127.627 8.16571C128.234 7.21868 129.054 6.47782 130.099 5.94064L129.642 5.05136C128.446 5.66618 127.49 6.52532 126.785 7.62629L127.627 8.16571ZM130.096 5.94195C131.155 5.4051 132.348 5.132 133.686 5.132V4.132C132.208 4.132 130.857 4.4349 129.644 5.05005L130.096 5.94195ZM133.686 5.132C134.914 5.132 136.033 5.37414 137.049 5.85241L137.475 4.94759C136.315 4.40186 135.05 4.132 133.686 4.132V5.132ZM137.052 5.85359C138.072 6.32659 138.879 7.0244 139.483 7.95273L140.321 7.40727C139.613 6.3196 138.661 5.49741 137.473 4.94641L137.052 5.85359ZM139.486 7.95735C140.092 8.86617 140.41 10.012 140.41 11.424H141.41C141.41 9.85999 141.056 8.50983 140.318 7.40265L139.486 7.95735ZM140.41 11.424C140.41 11.6026 140.403 11.8072 140.387 12.0387L141.385 12.1053C141.402 11.8568 141.41 11.6294 141.41 11.424H140.41ZM140.387 12.0364C140.372 12.2587 140.356 12.4647 140.34 12.6545L141.336 12.7375C141.353 12.5433 141.369 12.3333 141.385 12.1076L140.387 12.0364ZM140.838 12.196H130.734V13.196H140.838V12.196ZM131.234 12.696V10.08H130.234V12.696H131.234ZM130.734 10.58H137.958V9.58H130.734V10.58ZM137.797 9.60678L135.757 10.3028L136.08 11.2492L138.12 10.5532L137.797 9.60678ZM136.418 10.776C136.418 10.203 136.311 9.6836 136.069 9.24057L135.191 9.71943C135.334 9.9804 135.418 10.325 135.418 10.776H136.418ZM136.081 9.26427C135.867 8.81638 135.555 8.4584 135.143 8.21125L134.629 9.06875C134.857 9.2056 135.041 9.40762 135.179 9.69573L136.081 9.26427ZM135.159 8.22078C134.744 7.95144 134.262 7.828 133.734 7.828V8.828C134.103 8.828 134.388 8.91256 134.614 9.05922L135.159 8.22078ZM133.734 7.828C133.206 7.828 132.72 7.95163 132.295 8.21487L132.821 9.06513C133.068 8.91237 133.366 8.828 133.734 8.828V7.828ZM132.301 8.21125C131.889 8.4584 131.577 8.81638 131.363 9.26427L132.265 9.69573C132.403 9.40762 132.587 9.2056 132.815 9.06875L132.301 8.21125ZM131.367 9.25639C131.147 9.69549 131.05 10.2089 131.05 10.776H132.05C132.05 10.3191 132.129 9.96851 132.261 9.70361L131.367 9.25639ZM131.05 10.776V11.592H132.05V10.776H131.05ZM131.05 11.592C131.05 12.2187 131.176 12.7868 131.45 13.2763L132.322 12.7877C132.149 12.4772 132.05 12.0853 132.05 11.592H131.05ZM131.45 13.2763C131.724 13.7651 132.118 14.1391 132.623 14.3912L133.07 13.4968C132.742 13.3329 132.497 13.0989 132.322 12.7877L131.45 13.2763ZM132.637 14.398C133.135 14.6278 133.714 14.732 134.358 14.732V13.732C133.818 13.732 133.39 13.6442 133.056 13.49L132.637 14.398ZM134.358 14.732C135.004 14.732 135.572 14.6478 136.038 14.4535L135.654 13.5305C135.352 13.6562 134.928 13.732 134.358 13.732V14.732ZM136.032 14.4562C136.48 14.2769 136.933 14.0133 137.392 13.6738L136.797 12.8702C136.391 13.1707 136.012 13.3871 135.66 13.5278L136.032 14.4562ZM136.739 13.6241L139.571 16.4801L140.281 15.7759L137.449 12.9199L136.739 13.6241ZM139.56 15.7874C138.975 16.4161 138.248 16.9033 137.369 17.2461L137.732 18.1779C138.74 17.7847 139.597 17.2159 140.292 16.4686L139.56 15.7874ZM137.373 17.2445C136.516 17.5693 135.46 17.74 134.19 17.74V18.74C135.544 18.74 136.728 18.5587 137.728 18.1795L137.373 17.2445ZM145.214 17.424L144.962 17.856L144.97 17.8607L145.214 17.424ZM142.91 15.072L142.474 15.3171L142.476 15.3201L142.91 15.072ZM142.91 7.8L143.344 8.04807L143.346 8.04513L142.91 7.8ZM145.214 5.448L144.97 5.01125L144.967 5.01299L145.214 5.448ZM151.214 5.376L150.934 5.79068L150.941 5.7948L151.214 5.376ZM152.846 7.608L152.374 7.77284L152.375 7.7752L152.846 7.608ZM152.87 15.288L152.395 15.1299L152.393 15.1367L152.87 15.288ZM151.286 17.52L151.013 17.1012L151.009 17.104L151.286 17.52ZM150.758 13.728L151.015 14.1567L150.758 13.728ZM151.526 12.864L151.973 13.0876L151.977 13.0804L151.526 12.864ZM151.526 10.008L151.079 10.2316L151.083 10.2393L151.526 10.008ZM150.758 9.144L151.015 8.71525L150.758 9.144ZM148.598 9.144L148.855 9.57275L148.598 9.144ZM147.83 10.008L148.273 10.2393L148.277 10.2316L147.83 10.008ZM147.83 12.864L147.379 13.0804L147.383 13.0876L147.83 12.864ZM148.598 13.728L148.855 13.2993L148.598 13.728ZM151.982 18H151.482V18.5H151.982V18ZM151.982 16.224H152.482L152.482 16.2215L151.982 16.224ZM151.958 11.424L152.458 11.4215L152.458 11.4103L152.457 11.399L151.958 11.424ZM151.718 6.624H151.218V6.63649L151.219 6.64897L151.718 6.624ZM151.718 0.191999V-0.308001H151.218V0.191999H151.718ZM157.142 0.191999H157.642V-0.308001H157.142V0.191999ZM157.142 18V18.5H157.642V18H157.142ZM148.382 17.74C147.33 17.74 146.358 17.4891 145.457 16.9873L144.97 17.8607C146.022 18.4469 147.162 18.74 148.382 18.74V17.74ZM145.466 16.9921C144.585 16.4783 143.878 15.7593 143.344 14.8239L142.476 15.3201C143.093 16.4007 143.923 17.2497 144.962 17.8559L145.466 16.9921ZM143.346 14.8269C142.819 13.8913 142.546 12.7632 142.546 11.424H141.546C141.546 12.9008 141.848 14.2047 142.474 15.3171L143.346 14.8269ZM142.546 11.424C142.546 10.0846 142.819 8.96597 143.344 8.04807L142.476 7.55193C141.848 8.65003 141.546 9.94744 141.546 11.424H142.546ZM143.346 8.04513C143.88 7.09513 144.585 6.3792 145.46 5.88301L144.967 5.01299C143.923 5.6048 143.092 6.45687 142.474 7.55487L143.346 8.04513ZM145.457 5.88474C146.358 5.38294 147.33 5.132 148.382 5.132V4.132C147.162 4.132 146.022 4.42506 144.97 5.01126L145.457 5.88474ZM148.382 5.132C149.464 5.132 150.302 5.3647 150.934 5.79063L151.493 4.96137C150.653 4.3953 149.604 4.132 148.382 4.132V5.132ZM150.941 5.7948C151.566 6.20234 152.05 6.84609 152.374 7.77284L153.318 7.44316C152.938 6.35391 152.334 5.50966 151.487 4.95719L150.941 5.7948ZM152.375 7.7752C152.701 8.6945 152.874 9.90451 152.874 11.424H153.874C153.874 9.83949 153.695 8.5055 153.317 7.44079L152.375 7.7752ZM152.874 11.424C152.874 12.9613 152.709 14.1909 152.396 15.1299L153.344 15.4461C153.703 14.3691 153.874 13.0227 153.874 11.424H152.874ZM152.393 15.1367C152.101 16.058 151.633 16.6964 151.013 17.1012L151.559 17.9388C152.41 17.3836 152.999 16.534 153.346 15.4393L152.393 15.1367ZM151.009 17.104C150.398 17.5112 149.538 17.74 148.382 17.74V18.74C149.658 18.74 150.734 18.4888 151.563 17.936L151.009 17.104ZM149.678 14.516C150.162 14.516 150.612 14.3987 151.015 14.1567L150.501 13.2993C150.264 13.4413 149.994 13.516 149.678 13.516V14.516ZM151.015 14.1567C151.428 13.9088 151.745 13.5436 151.973 13.0876L151.079 12.6404C150.923 12.9524 150.727 13.1632 150.501 13.2993L151.015 14.1567ZM151.977 13.0804C152.208 12.5975 152.314 12.0398 152.314 11.424H151.314C151.314 11.9282 151.227 12.3305 151.075 12.6476L151.977 13.0804ZM152.314 11.424C152.314 10.797 152.21 10.2384 151.969 9.77672L151.083 10.2393C151.226 10.5136 151.314 10.899 151.314 11.424H152.314ZM151.973 9.78439C151.745 9.32843 151.428 8.9632 151.015 8.71525L150.501 9.57275C150.727 9.7088 150.923 9.91957 151.079 10.2316L151.973 9.78439ZM151.015 8.71525C150.612 8.47327 150.162 8.356 149.678 8.356V9.356C149.994 9.356 150.264 9.43073 150.501 9.57275L151.015 8.71525ZM149.678 8.356C149.194 8.356 148.744 8.47327 148.341 8.71525L148.855 9.57275C149.092 9.43073 149.362 9.356 149.678 9.356V8.356ZM148.341 8.71525C147.927 8.9632 147.611 9.32843 147.383 9.78439L148.277 10.2316C148.433 9.91957 148.628 9.7088 148.855 9.57275L148.341 8.71525ZM147.387 9.77672C147.146 10.2384 147.042 10.797 147.042 11.424H148.042C148.042 10.899 148.13 10.5136 148.273 10.2393L147.387 9.77672ZM147.042 11.424C147.042 12.0398 147.147 12.5975 147.379 13.0804L148.281 12.6476C148.128 12.3305 148.042 11.9282 148.042 11.424H147.042ZM147.383 13.0876C147.611 13.5436 147.927 13.9088 148.341 14.1567L148.855 13.2993C148.628 13.1632 148.433 12.9524 148.277 12.6404L147.383 13.0876ZM148.341 14.1567C148.744 14.3987 149.194 14.516 149.678 14.516V13.516C149.362 13.516 149.092 13.4413 148.855 13.2993L148.341 14.1567ZM152.482 18V16.224H151.482V18H152.482ZM152.482 16.2215L152.458 11.4215L151.458 11.4265L151.482 16.2265L152.482 16.2215ZM152.457 11.399L152.217 6.59903L151.219 6.64897L151.458 11.449L152.457 11.399ZM152.218 6.624V0.191999H151.218V6.624H152.218ZM151.718 0.691999H157.142V-0.308001H151.718V0.691999ZM156.642 0.191999V18H157.642V0.191999H156.642ZM157.142 17.5H151.982V18.5H157.142V17.5ZM171.923 17.736L171.747 18.2042L171.75 18.205L171.923 17.736ZM168.923 15.912L168.58 16.2757L168.584 16.2791L168.923 15.912ZM166.931 13.104L166.472 13.3026L166.475 13.3083L166.931 13.104ZM166.931 6.096L166.475 5.89166L166.473 5.89486L166.931 6.096ZM168.923 3.312L169.263 3.67915L169.266 3.6757L168.923 3.312ZM171.923 1.464L171.75 0.995043L171.747 0.995835L171.923 1.464ZM179.507 1.464L179.331 1.93216V1.93216L179.507 1.464ZM182.507 3.312L182.164 3.67571L182.168 3.67914L182.507 3.312ZM184.475 6.096L184.016 6.29464L184.02 6.3029L184.475 6.096ZM184.475 13.104L184.019 12.8997L184.016 12.9054L184.475 13.104ZM182.507 15.912L182.847 16.2792L182.85 16.2757L182.507 15.912ZM179.507 17.736L179.331 17.2678L179.507 17.736ZM177.179 13.512L176.988 13.05L176.982 13.0524L177.179 13.512ZM178.379 12.696L178.018 12.3504L178.017 12.3508L178.379 12.696ZM179.195 11.376L179.663 11.5516L179.665 11.5469L179.195 11.376ZM179.195 7.848L178.725 8.01888L178.727 8.02356L179.195 7.848ZM178.379 6.528L178.01 6.86513L178.017 6.87352L178.026 6.88155L178.379 6.528ZM177.179 5.688L176.982 6.14761L176.988 6.15001L177.179 5.688ZM174.227 5.688L174.036 5.22596L174.03 5.22843L174.227 5.688ZM173.027 6.528L172.666 6.18239L172.665 6.18276L173.027 6.528ZM172.235 7.848L172.703 8.02357L172.705 8.01887L172.235 7.848ZM172.235 11.376L171.765 11.5469L171.767 11.5516L172.235 11.376ZM173.027 12.696L172.658 13.0331L172.665 13.0415L172.674 13.0496L173.027 12.696ZM174.227 13.512L174.03 13.9716L174.036 13.974L174.227 13.512ZM175.715 17.884C174.409 17.884 173.204 17.6767 172.097 17.267L171.75 18.205C172.978 18.6593 174.301 18.884 175.715 18.884V17.884ZM172.099 17.2678C171.003 16.8571 170.06 16.2821 169.262 15.5449L168.584 16.2791C169.482 17.1099 170.539 17.7509 171.747 18.2042L172.099 17.2678ZM169.266 15.5483C168.466 14.7938 167.841 13.9121 167.387 12.8997L166.475 13.3083C166.981 14.4399 167.684 15.4302 168.58 16.2757L169.266 15.5483ZM167.39 12.9054C166.955 11.9011 166.735 10.8013 166.735 9.6H165.735C165.735 10.9266 165.979 12.1629 166.472 13.3026L167.39 12.9054ZM166.735 9.6C166.735 8.38161 166.956 7.2831 167.389 6.29714L166.473 5.89486C165.979 7.02089 165.735 8.25839 165.735 9.6H166.735ZM167.387 6.30033C167.84 5.28886 168.465 4.41652 169.262 3.67913L168.584 2.94486C167.685 3.77548 166.982 4.75914 166.475 5.89167L167.387 6.30033ZM169.266 3.6757C170.063 2.92381 171.005 2.34214 172.099 1.93216L171.747 0.995835C170.537 1.44986 169.479 2.10019 168.58 2.9483L169.266 3.6757ZM172.097 1.93295C173.204 1.5233 174.409 1.316 175.715 1.316V0.316C174.301 0.316 172.978 0.540702 171.75 0.995048L172.097 1.93295ZM175.715 1.316C177.038 1.316 178.242 1.52356 179.331 1.93216L179.683 0.995835C178.468 0.54044 177.144 0.316 175.715 0.316V1.316ZM179.331 1.93216C180.425 2.34214 181.367 2.92381 182.164 3.6757L182.85 2.9483C181.951 2.10019 180.893 1.44986 179.683 0.995835L179.331 1.93216ZM182.168 3.67914C182.964 4.41533 183.58 5.28573 184.016 6.29461L184.934 5.89739C184.443 4.76227 183.746 3.77667 182.846 2.94486L182.168 3.67914ZM184.02 6.3029C184.467 7.28747 184.695 8.38393 184.695 9.6H185.695C185.695 8.25607 185.443 7.01653 184.93 5.8891L184.02 6.3029ZM184.695 9.6C184.695 10.799 184.468 11.8967 184.019 12.8997L184.931 13.3083C185.442 12.1673 185.695 10.929 185.695 9.6H184.695ZM184.016 12.9054C183.579 13.9152 182.962 14.795 182.164 15.5483L182.85 16.2757C183.748 15.429 184.443 14.4368 184.934 13.3026L184.016 12.9054ZM182.168 15.5449C181.37 16.2821 180.427 16.8571 179.331 17.2678L179.683 18.2042C180.891 17.7509 181.948 17.1099 182.846 16.2791L182.168 15.5449ZM179.331 17.2678C178.242 17.6764 177.038 17.884 175.715 17.884V18.884C177.144 18.884 178.468 18.6596 179.683 18.2042L179.331 17.2678ZM175.715 14.3C176.305 14.3 176.861 14.1924 177.376 13.9716L176.982 13.0524C176.601 13.2156 176.181 13.3 175.715 13.3V14.3ZM177.37 13.974C177.896 13.7563 178.355 13.4452 178.741 13.0412L178.017 12.3508C177.731 12.6508 177.39 12.8837 176.988 13.05L177.37 13.974ZM178.74 13.0416C179.143 12.6212 179.449 12.1222 179.663 11.5516L178.727 11.2004C178.557 11.6538 178.32 12.0348 178.018 12.3504L178.74 13.0416ZM179.665 11.5469C179.88 10.9558 179.983 10.3047 179.983 9.6H178.983C178.983 10.2073 178.894 10.7402 178.725 11.2051L179.665 11.5469ZM179.983 9.6C179.983 8.8957 179.88 8.25054 179.663 7.67244L178.727 8.02356C178.894 8.46946 178.983 8.9923 178.983 9.6H179.983ZM179.665 7.67713C179.451 7.08933 179.143 6.58438 178.733 6.17445L178.026 6.88155C178.32 7.17561 178.555 7.55067 178.725 8.01887L179.665 7.67713ZM178.748 6.19086C178.362 5.76825 177.902 5.44582 177.37 5.22599L176.988 6.15001C177.385 6.31418 177.724 6.55175 178.01 6.86513L178.748 6.19086ZM177.376 5.22843C176.861 5.0076 176.305 4.9 175.715 4.9V5.9C176.181 5.9 176.601 5.9844 176.982 6.14757L177.376 5.22843ZM175.715 4.9C175.125 4.9 174.564 5.00763 174.036 5.22599L174.418 6.15001C174.819 5.98437 175.249 5.9 175.715 5.9V4.9ZM174.03 5.22843C173.517 5.44814 173.062 5.76794 172.666 6.18239L173.388 6.87361C173.696 6.55206 174.041 6.31186 174.424 6.14757L174.03 5.22843ZM172.665 6.18276C172.275 6.59192 171.977 7.09412 171.765 7.67713L172.705 8.01887C172.877 7.54588 173.107 7.16808 173.389 6.87324L172.665 6.18276ZM171.767 7.67244C171.55 8.25054 171.447 8.8957 171.447 9.6H172.447C172.447 8.9923 172.536 8.46946 172.703 8.02356L171.767 7.67244ZM171.447 9.6C171.447 10.3047 171.55 10.9558 171.765 11.5469L172.705 11.2051C172.536 10.7402 172.447 10.2073 172.447 9.6H171.447ZM171.767 11.5516C171.979 12.1174 172.275 12.6137 172.658 13.0331L173.396 12.3589C173.107 12.0423 172.875 11.6586 172.703 11.2004L171.767 11.5516ZM172.674 13.0496C173.07 13.4456 173.522 13.754 174.03 13.9716L174.424 13.0524C174.036 12.886 173.689 12.6504 173.381 12.3424L172.674 13.0496ZM174.036 13.974C174.564 14.1924 175.125 14.3 175.715 14.3V13.3C175.249 13.3 174.819 13.2156 174.418 13.05L174.036 13.974ZM198.939 5.256L198.712 5.70151L198.719 5.70496L198.939 5.256ZM200.859 7.152L200.418 7.38859L200.422 7.39482L200.859 7.152ZM201.579 18V18.5H202.079V18H201.579ZM196.155 18H195.655V18.5H196.155V18ZM195.723 9.72L195.336 10.0367L195.343 10.0454L195.723 9.72ZM193.515 9.456L193.748 9.89853L193.756 9.89411L193.515 9.456ZM192.771 10.272L192.324 10.0484L192.32 10.056L192.316 10.0637L192.771 10.272ZM192.507 18V18.5H193.007V18H192.507ZM187.083 18H186.583V18.5H187.083V18ZM187.083 4.872V4.372H186.583V4.872H187.083ZM192.243 4.872H192.743V4.372H192.243V4.872ZM192.243 8.712L191.878 9.05344L192.743 9.97907V8.712H192.243ZM191.211 7.608L190.767 7.37868L190.605 7.69192L190.846 7.94944L191.211 7.608ZM193.275 5.376L193.029 4.94041L193.026 4.94237L193.275 5.376ZM196.203 5.132C197.14 5.132 197.973 5.3248 198.712 5.70145L199.166 4.81055C198.273 4.3552 197.282 4.132 196.203 4.132V5.132ZM198.719 5.70496C199.433 6.05524 200 6.60897 200.418 7.38856L201.299 6.91544C200.79 5.96703 200.076 5.25675 199.159 4.80704L198.719 5.70496ZM200.422 7.39482C200.847 8.16108 201.079 9.18935 201.079 10.512H202.079C202.079 9.08265 201.83 7.87091 201.296 6.90918L200.422 7.39482ZM201.079 10.512V18H202.079V10.512H201.079ZM201.579 17.5H196.155V18.5H201.579V17.5ZM196.655 18V11.448H195.655V18H196.655ZM196.655 11.448C196.655 10.6017 196.511 9.8714 196.102 9.3946L195.343 10.0454C195.51 10.2406 195.655 10.6623 195.655 11.448H196.655ZM196.11 9.40338C195.717 8.92385 195.177 8.692 194.547 8.692V9.692C194.908 9.692 195.152 9.81215 195.336 10.0366L196.11 9.40338ZM194.547 8.692C194.095 8.692 193.668 8.80097 193.274 9.01789L193.756 9.89411C194.001 9.75903 194.262 9.692 194.547 9.692V8.692ZM193.282 9.01354C192.864 9.23327 192.551 9.59442 192.324 10.0484L193.218 10.4956C193.375 10.1816 193.557 9.99873 193.748 9.89846L193.282 9.01354ZM192.316 10.0637C192.098 10.5392 192.007 11.1398 192.007 11.832H193.007C193.007 11.2122 193.091 10.7728 193.225 10.4803L192.316 10.0637ZM192.007 11.832V18H193.007V11.832H192.007ZM192.507 17.5H187.083V18.5H192.507V17.5ZM187.583 18V4.872H186.583V18H187.583ZM187.083 5.372H192.243V4.372H187.083V5.372ZM191.743 4.872V8.712H192.743V4.872H191.743ZM192.608 8.37056L191.576 7.26656L190.846 7.94944L191.878 9.05344L192.608 8.37056ZM191.655 7.83732C192.128 6.92016 192.753 6.2521 193.524 5.80963L193.026 4.94237C192.069 5.49189 191.317 6.31184 190.767 7.37868L191.655 7.83732ZM193.52 5.81158C194.321 5.36041 195.211 5.132 196.203 5.132V4.132C195.05 4.132 193.989 4.39959 193.029 4.94042L193.52 5.81158Z" fill="#878686"/>
<defs>
<linearGradient id="paint0_linear_589_5138" x1="206.804" y1="9.20403" x2="1.15938" y2="6.70001" gradientUnits="userSpaceOnUse">
<stop stop-color="#7E91B8"/>
<stop offset="0.36547" stop-color="#2CCC59" stop-opacity="0.98"/>
<stop offset="0.777867" stop-color="#8ACA5E" stop-opacity="0.99381"/>
<stop offset="1" stop-color="#E0C45F"/>
</linearGradient>
</defs>
</svg>
