<svg width="307" height="31" viewBox="0 0 307 31" fill="none" xmlns="http://www.w3.org/2000/svg">
<path d="M16.1897 30.64C13.9497 30.64 11.8697 30.2933 9.94969 29.6C8.05635 28.88 6.40302 27.8667 4.98969 26.56C3.60302 25.2533 2.52302 23.7067 1.74969 21.92C0.976354 20.1333 0.589688 18.16 0.589688 16C0.589688 13.84 0.976354 11.8667 1.74969 10.08C2.52302 8.29333 3.60302 6.74667 4.98969 5.44C6.40302 4.13333 8.05635 3.13333 9.94969 2.44C11.8697 1.72 13.9497 1.36 16.1897 1.36C18.9364 1.36 21.363 1.84 23.4697 2.8C25.603 3.76 27.363 5.14666 28.7497 6.96L22.7897 12.28C21.963 11.24 21.043 10.44 20.0297 9.88C19.043 9.29333 17.923 9 16.6697 9C15.683 9 14.7897 9.16 13.9897 9.48C13.1897 9.8 12.4964 10.2667 11.9097 10.88C11.3497 11.4933 10.9097 12.24 10.5897 13.12C10.2697 13.9733 10.1097 14.9333 10.1097 16C10.1097 17.0667 10.2697 18.04 10.5897 18.92C10.9097 19.7733 11.3497 20.5067 11.9097 21.12C12.4964 21.7333 13.1897 22.2 13.9897 22.52C14.7897 22.84 15.683 23 16.6697 23C17.923 23 19.043 22.72 20.0297 22.16C21.043 21.5733 21.963 20.76 22.7897 19.72L28.7497 25.04C27.363 26.8267 25.603 28.2133 23.4697 29.2C21.363 30.16 18.9364 30.64 16.1897 30.64ZM44.4353 30V26.12L43.7953 25.08V17.72C43.7953 16.6533 43.462 15.84 42.7953 15.28C42.1553 14.72 41.102 14.44 39.6353 14.44C38.6486 14.44 37.6486 14.6 36.6353 14.92C35.622 15.2133 34.7553 15.6267 34.0353 16.16L31.1553 10.2C32.4353 9.4 33.9686 8.78667 35.7553 8.36C37.542 7.93333 39.2886 7.72 40.9953 7.72C44.7553 7.72 47.662 8.56 49.7153 10.24C51.7953 11.92 52.8353 14.5867 52.8353 18.24V30H44.4353ZM38.2353 30.4C36.4486 30.4 34.9553 30.0933 33.7553 29.48C32.5553 28.8667 31.6486 28.0533 31.0353 27.04C30.422 26 30.1153 24.8533 30.1153 23.6C30.1153 22.1867 30.4753 20.9867 31.1953 20C31.9153 19.0133 33.0086 18.2667 34.4753 17.76C35.9686 17.2533 37.8486 17 40.1153 17H44.6753V21.36H41.5553C40.5953 21.36 39.8886 21.52 39.4353 21.84C39.0086 22.1333 38.7953 22.5867 38.7953 23.2C38.7953 23.7067 38.982 24.1333 39.3553 24.48C39.7553 24.8 40.2886 24.96 40.9553 24.96C41.5686 24.96 42.1286 24.8 42.6353 24.48C43.1686 24.1333 43.5553 23.6 43.7953 22.88L44.9553 25.56C44.6086 27.1867 43.8753 28.4 42.7553 29.2C41.6353 30 40.1286 30.4 38.2353 30.4ZM71.9422 7.72C73.6222 7.72 75.1422 8.06667 76.5022 8.76C77.8622 9.42667 78.9289 10.48 79.7022 11.92C80.5022 13.36 80.9022 15.2267 80.9022 17.52V30H71.8622V19.08C71.8622 17.72 71.6222 16.76 71.1422 16.2C70.6622 15.6133 70.0089 15.32 69.1822 15.32C68.5689 15.32 67.9955 15.4667 67.4622 15.76C66.9555 16.0267 66.5422 16.48 66.2222 17.12C65.9289 17.76 65.7822 18.6267 65.7822 19.72V30H56.7422V8.12H65.3422V14.52L63.6222 12.68C64.4755 11.0267 65.6222 9.78667 67.0622 8.96C68.5289 8.13333 70.1555 7.72 71.9422 7.72ZM90.6375 30L81.8375 8.12H91.1175L97.7975 25.88H93.1175L100.238 8.12H108.798L99.9975 30H90.6375ZM122.638 30V26.12L121.998 25.08V17.72C121.998 16.6533 121.665 15.84 120.998 15.28C120.358 14.72 119.305 14.44 117.838 14.44C116.852 14.44 115.852 14.6 114.838 14.92C113.825 15.2133 112.958 15.6267 112.238 16.16L109.358 10.2C110.638 9.4 112.172 8.78667 113.958 8.36C115.745 7.93333 117.492 7.72 119.198 7.72C122.958 7.72 125.865 8.56 127.918 10.24C129.998 11.92 131.038 14.5867 131.038 18.24V30H122.638ZM116.438 30.4C114.652 30.4 113.158 30.0933 111.958 29.48C110.758 28.8667 109.852 28.0533 109.238 27.04C108.625 26 108.318 24.8533 108.318 23.6C108.318 22.1867 108.678 20.9867 109.398 20C110.118 19.0133 111.212 18.2667 112.678 17.76C114.172 17.2533 116.052 17 118.318 17H122.878V21.36H119.758C118.798 21.36 118.092 21.52 117.638 21.84C117.212 22.1333 116.998 22.5867 116.998 23.2C116.998 23.7067 117.185 24.1333 117.558 24.48C117.958 24.8 118.492 24.96 119.158 24.96C119.772 24.96 120.332 24.8 120.838 24.48C121.372 24.1333 121.758 23.6 121.998 22.88L123.158 25.56C122.812 27.1867 122.078 28.4 120.958 29.2C119.838 30 118.332 30.4 116.438 30.4ZM143.505 30.4C141.639 30.4 139.799 30.2 137.985 29.8C136.172 29.4 134.705 28.88 133.585 28.24L136.065 22.28C137.105 22.8933 138.305 23.3733 139.665 23.72C141.052 24.0667 142.399 24.24 143.705 24.24C144.799 24.24 145.532 24.1467 145.905 23.96C146.305 23.7733 146.505 23.52 146.505 23.2C146.505 22.88 146.279 22.6533 145.825 22.52C145.372 22.36 144.772 22.24 144.025 22.16C143.279 22.08 142.452 21.9867 141.545 21.88C140.665 21.7467 139.772 21.56 138.865 21.32C137.959 21.08 137.132 20.72 136.385 20.24C135.639 19.76 135.039 19.12 134.585 18.32C134.132 17.4933 133.905 16.4533 133.905 15.2C133.905 13.8133 134.319 12.56 135.145 11.44C135.999 10.32 137.252 9.42667 138.905 8.76C140.585 8.06667 142.652 7.72 145.105 7.72C146.705 7.72 148.305 7.86667 149.905 8.16C151.505 8.45333 152.879 8.90667 154.025 9.52L151.545 15.48C150.425 14.8667 149.319 14.4533 148.225 14.24C147.159 14 146.159 13.88 145.225 13.88C144.079 13.88 143.292 13.9867 142.865 14.2C142.465 14.4133 142.265 14.6533 142.265 14.92C142.265 15.24 142.492 15.48 142.945 15.64C143.399 15.8 143.999 15.92 144.745 16C145.492 16.08 146.305 16.1867 147.185 16.32C148.092 16.4267 148.985 16.6133 149.865 16.88C150.772 17.12 151.599 17.48 152.345 17.96C153.092 18.44 153.692 19.0933 154.145 19.92C154.599 20.72 154.825 21.7467 154.825 23C154.825 24.3067 154.412 25.5333 153.585 26.68C152.759 27.8 151.505 28.7067 149.825 29.4C148.145 30.0667 146.039 30.4 143.505 30.4ZM178.635 13.92H190.955V21.04H178.635V13.92ZM179.275 30H169.835V2H192.595V9.12H179.275V30ZM206.466 30.4C203.986 30.4 201.786 29.92 199.866 28.96C197.973 27.9733 196.48 26.6267 195.386 24.92C194.293 23.2133 193.746 21.2533 193.746 19.04C193.746 16.8267 194.293 14.8667 195.386 13.16C196.48 11.4533 197.973 10.12 199.866 9.16C201.786 8.2 203.986 7.72 206.466 7.72C208.946 7.72 211.146 8.2 213.066 9.16C214.986 10.12 216.48 11.4533 217.546 13.16C218.64 14.8667 219.186 16.8267 219.186 19.04C219.186 21.2533 218.64 23.2133 217.546 24.92C216.48 26.6267 214.986 27.9733 213.066 28.96C211.146 29.92 208.946 30.4 206.466 30.4ZM206.466 23.36C207.133 23.36 207.733 23.2 208.266 22.88C208.8 22.56 209.226 22.08 209.546 21.44C209.866 20.7733 210.026 19.9733 210.026 19.04C210.026 18.08 209.866 17.2933 209.546 16.68C209.226 16.04 208.8 15.56 208.266 15.24C207.733 14.92 207.133 14.76 206.466 14.76C205.8 14.76 205.2 14.92 204.666 15.24C204.133 15.56 203.706 16.04 203.386 16.68C203.066 17.2933 202.906 18.08 202.906 19.04C202.906 19.9733 203.066 20.7733 203.386 21.44C203.706 22.08 204.133 22.56 204.666 22.88C205.2 23.2 205.8 23.36 206.466 23.36ZM222.016 30V8.12H230.616V14.72L229.216 12.84C229.882 11.1333 230.949 9.85333 232.416 9C233.882 8.14667 235.642 7.72 237.696 7.72V15.72C237.296 15.6667 236.936 15.6267 236.616 15.6C236.322 15.5733 236.016 15.56 235.696 15.56C234.336 15.56 233.216 15.92 232.336 16.64C231.482 17.3333 231.056 18.5467 231.056 20.28V30H222.016ZM249.49 30L261.73 2H271.01L283.25 30H273.49L264.45 6.48H268.13L259.09 30H249.49ZM256.77 25.12L259.17 18.32H272.05L274.45 25.12H256.77ZM284.477 30V0.319998H293.517V30H284.477ZM297.523 30V0.319998H306.563V30H297.523Z" fill="url(#paint0_linear_56_7431)"/>
<path d="M9.94969 29.6L9.77194 30.0674L9.77987 30.0703L9.94969 29.6ZM4.98969 26.56L4.64677 26.9239L4.65026 26.9271L4.98969 26.56ZM1.74969 21.92L1.29083 22.1186L1.74969 21.92ZM1.74969 10.08L1.29083 9.88139L1.74969 10.08ZM4.98969 5.44L4.65024 5.07285L4.64679 5.07611L4.98969 5.44ZM9.94969 2.44L10.1216 2.90952L10.1252 2.90816L9.94969 2.44ZM23.4697 2.8L23.2624 3.25499L23.2645 3.25596L23.4697 2.8ZM28.7497 6.96L29.0826 7.33301L29.4284 7.0244L29.1469 6.65627L28.7497 6.96ZM22.7897 12.28L22.3983 12.5911L22.7277 13.0056L23.1226 12.653L22.7897 12.28ZM20.0297 9.88L19.7742 10.3098L19.7809 10.3138L19.7878 10.3176L20.0297 9.88ZM13.9897 9.48L14.1754 9.94424H14.1754L13.9897 9.48ZM11.9097 10.88L11.5483 10.5343L11.5404 10.5429L11.9097 10.88ZM10.5897 13.12L11.0579 13.2956L11.0596 13.2909L10.5897 13.12ZM10.5897 18.92L10.1198 19.0909L10.1215 19.0956L10.5897 18.92ZM11.9097 21.12L11.5403 21.4572L11.5484 21.4656L11.9097 21.12ZM13.9897 22.52L13.804 22.9842L13.9897 22.52ZM20.0297 22.16L20.2765 22.5949L20.2802 22.5927L20.0297 22.16ZM22.7897 19.72L23.1226 19.347L22.7277 18.9944L22.3983 19.4089L22.7897 19.72ZM28.7497 25.04L29.1447 25.3466L29.4309 24.9778L29.0826 24.667L28.7497 25.04ZM23.4697 29.2L23.677 29.655L23.6796 29.6538L23.4697 29.2ZM16.1897 30.14C14.002 30.14 11.98 29.8016 10.1195 29.1297L9.77987 30.0703C11.7594 30.7851 13.8974 31.14 16.1897 31.14V30.14ZM10.1274 29.1327C8.29072 28.4342 6.69302 27.4538 5.32912 26.1929L4.65026 26.9271C6.11302 28.2795 7.82199 29.3258 9.77196 30.0673L10.1274 29.1327ZM5.33259 26.1961C3.99651 24.9371 2.95547 23.447 2.20855 21.7214L1.29083 22.1186C2.09057 23.9663 3.20953 25.5696 4.64679 26.9239L5.33259 26.1961ZM2.20855 21.7214C1.46518 20.004 1.08969 18.0992 1.08969 16H0.0896876C0.0896876 18.2208 0.487524 20.2627 1.29083 22.1186L2.20855 21.7214ZM1.08969 16C1.08969 13.9008 1.46518 11.996 2.20855 10.2786L1.29083 9.88139C0.487524 11.7373 0.0896876 13.7792 0.0896876 16H1.08969ZM2.20855 10.2786C2.95547 8.55296 3.99651 7.06289 5.33259 5.80389L4.64679 5.07611C3.20953 6.43044 2.09057 8.03371 1.29083 9.88139L2.20855 10.2786ZM5.32912 5.80713C6.69164 4.54744 8.28733 3.58122 10.1216 2.90951L9.77775 1.97049C7.82537 2.68544 6.1144 3.71922 4.65026 5.07286L5.32912 5.80713ZM10.1252 2.90816C11.9841 2.21108 14.0041 1.86 16.1897 1.86V0.859999C13.8953 0.859999 11.7552 1.22892 9.77413 1.97184L10.1252 2.90816ZM16.1897 1.86C18.878 1.86 21.2318 2.32966 23.2624 3.25499L23.677 2.34501C21.4943 1.35034 18.9947 0.859999 16.1897 0.859999V1.86ZM23.2645 3.25596C25.3242 4.1828 27.0175 5.51795 28.3525 7.26372L29.1469 6.65627C27.7085 4.77538 25.8819 3.33719 23.6749 2.34404L23.2645 3.25596ZM28.4167 6.58699L22.4567 11.907L23.1226 12.653L29.0826 7.33301L28.4167 6.58699ZM23.1811 11.9689C22.3194 10.8848 21.3505 10.0386 20.2715 9.44238L19.7878 10.3176C20.7356 10.8414 21.6066 11.5952 22.3983 12.5911L23.1811 11.9689ZM20.2852 9.45023C19.2142 8.81343 18.0044 8.5 16.6697 8.5V9.5C17.8416 9.5 18.8718 9.77324 19.7742 10.3098L20.2852 9.45023ZM16.6697 8.5C15.6286 8.5 14.671 8.66896 13.804 9.01576L14.1754 9.94424C14.9084 9.65104 15.7375 9.5 16.6697 9.5V8.5ZM13.804 9.01576C12.9387 9.36188 12.1852 9.86861 11.5484 10.5344L12.271 11.2256C12.8075 10.6647 13.4407 10.2381 14.1754 9.94424L13.804 9.01576ZM11.5404 10.5429C10.9311 11.2103 10.4593 12.0155 10.1198 12.9491L11.0596 13.2909C11.3601 12.4645 11.7683 11.7764 12.2789 11.2171L11.5404 10.5429ZM10.1215 12.9444C9.77722 13.8626 9.60969 14.8834 9.60969 16H10.6097C10.6097 14.9833 10.7622 14.0841 11.0579 13.2956L10.1215 12.9444ZM9.60969 16C9.60969 17.1169 9.77731 18.1491 10.1198 19.0909L11.0596 18.7491C10.7621 17.9309 10.6097 17.0164 10.6097 16H9.60969ZM10.1215 19.0956C10.4617 20.0027 10.9335 20.7924 11.5404 21.4571L12.2789 20.7829C11.7659 20.221 11.3577 19.5439 11.0579 18.7444L10.1215 19.0956ZM11.5484 21.4656C12.1852 22.1314 12.9387 22.6381 13.804 22.9842L14.1754 22.0558C13.4407 21.7619 12.8075 21.3353 12.271 20.7744L11.5484 21.4656ZM13.804 22.9842C14.671 23.331 15.6286 23.5 16.6697 23.5V22.5C15.7375 22.5 14.9084 22.349 14.1754 22.0558L13.804 22.9842ZM16.6697 23.5C18.0003 23.5 19.2069 23.2019 20.2765 22.5948L19.7829 21.7252C18.8791 22.2381 17.8458 22.5 16.6697 22.5V23.5ZM20.2802 22.5927C21.3545 21.9708 22.3207 21.1136 23.1811 20.0311L22.3983 19.4089C21.6054 20.4064 20.7316 21.1759 19.7792 21.7273L20.2802 22.5927ZM22.4567 20.093L28.4167 25.413L29.0826 24.667L23.1226 19.347L22.4567 20.093ZM28.3547 24.7334C27.019 26.4544 25.3235 27.7917 23.2598 28.7462L23.6796 29.6538C25.8826 28.6349 27.707 27.1989 29.1447 25.3466L28.3547 24.7334ZM23.2624 28.745C21.2318 29.6703 18.878 30.14 16.1897 30.14V31.14C18.9947 31.14 21.4943 30.6497 23.677 29.655L23.2624 28.745ZM44.4353 30H43.9353V30.5H44.4353V30ZM44.4353 26.12H44.9353V25.9785L44.8611 25.858L44.4353 26.12ZM43.7953 25.08H43.2953V25.2215L43.3695 25.342L43.7953 25.08ZM42.7953 15.28L42.466 15.6564L42.4737 15.6629L42.7953 15.28ZM36.6353 14.92L36.7744 15.4004L36.7859 15.3968L36.6353 14.92ZM34.0353 16.16L33.5851 16.3775L33.8478 16.9211L34.3329 16.5618L34.0353 16.16ZM31.1553 10.2L30.8903 9.776L30.51 10.0137L30.7051 10.4175L31.1553 10.2ZM35.7553 8.36L35.8714 8.84632L35.7553 8.36ZM49.7153 10.24L49.3987 10.627L49.4011 10.629L49.7153 10.24ZM52.8353 30V30.5H53.3353V30H52.8353ZM33.7553 29.48L33.5278 29.9252L33.7553 29.48ZM31.0353 27.04L30.6046 27.294L30.6076 27.2989L31.0353 27.04ZM31.1953 20L31.5992 20.2947L31.1953 20ZM34.4753 17.76L34.3147 17.2865L34.3121 17.2874L34.4753 17.76ZM44.6753 17H45.1753V16.5H44.6753V17ZM44.6753 21.36V21.86H45.1753V21.36H44.6753ZM39.4353 21.84L39.7186 22.2521L39.7237 22.2485L39.4353 21.84ZM39.3553 24.48L39.0151 24.8464L39.0286 24.8589L39.043 24.8704L39.3553 24.48ZM42.6353 24.48L42.9023 24.9028L42.9078 24.8992L42.6353 24.48ZM43.7953 22.88L44.2542 22.6814L43.7346 21.481L43.321 22.7219L43.7953 22.88ZM44.9553 25.56L45.4443 25.6642L45.4776 25.508L45.4142 25.3614L44.9553 25.56ZM42.7553 29.2L42.4647 28.7931L42.7553 29.2ZM44.9353 30V26.12H43.9353V30H44.9353ZM44.8611 25.858L44.2211 24.818L43.3695 25.342L44.0095 26.382L44.8611 25.858ZM44.2953 25.08V17.72H43.2953V25.08H44.2953ZM44.2953 17.72C44.2953 16.542 43.9219 15.5733 43.1169 14.8971L42.4737 15.6629C43.0021 16.1067 43.2953 16.7646 43.2953 17.72H44.2953ZM43.1246 14.9037C42.3472 14.2235 41.1429 13.94 39.6353 13.94V14.94C41.0611 14.94 41.9634 15.2165 42.4661 15.6563L43.1246 14.9037ZM39.6353 13.94C38.5938 13.94 37.543 14.109 36.4847 14.4432L36.7859 15.3968C37.7542 15.091 38.7035 14.94 39.6353 14.94V13.94ZM36.4963 14.4397C35.4358 14.7467 34.5131 15.1838 33.7377 15.7582L34.3329 16.5618C34.9975 16.0695 35.8082 15.68 36.7743 15.4003L36.4963 14.4397ZM34.4855 15.9425L31.6055 9.98245L30.7051 10.4175L33.5851 16.3775L34.4855 15.9425ZM31.4203 10.624C32.6457 9.85814 34.1264 9.26305 35.8714 8.84632L35.6392 7.87367C33.8109 8.31028 32.2249 8.94185 30.8903 9.776L31.4203 10.624ZM35.8714 8.84632C37.623 8.42805 39.3306 8.22 40.9953 8.22V7.22C39.2467 7.22 37.461 7.43861 35.6392 7.87367L35.8714 8.84632ZM40.9953 8.22C44.6872 8.22 47.4655 9.04526 49.3987 10.627L50.0319 9.85302C47.8585 8.07474 44.8234 7.22 40.9953 7.22V8.22ZM49.4011 10.629C51.3245 12.1824 52.3353 14.679 52.3353 18.24H53.3353C53.3353 14.4943 52.2661 11.6576 50.0295 9.85103L49.4011 10.629ZM52.3353 18.24V30H53.3353V18.24H52.3353ZM52.8353 29.5H44.4353V30.5H52.8353V29.5ZM38.2353 29.9C36.503 29.9 35.0933 29.6023 33.9829 29.0348L33.5278 29.9252C34.8173 30.5843 36.3943 30.9 38.2353 30.9V29.9ZM33.9829 29.0348C32.854 28.4578 32.0219 27.7044 31.4631 26.7811L30.6076 27.2989C31.2754 28.4022 32.2567 29.2756 33.5278 29.9252L33.9829 29.0348ZM31.466 26.786C30.8998 25.826 30.6153 24.7676 30.6153 23.6H29.6153C29.6153 24.9391 29.9441 26.174 30.6046 27.294L31.466 26.786ZM30.6153 23.6C30.6153 22.2754 30.9511 21.1829 31.5992 20.2947L30.7914 19.7053C29.9995 20.7905 29.6153 22.098 29.6153 23.6H30.6153ZM31.5992 20.2947C32.2446 19.4103 33.2423 18.715 34.6386 18.2326L34.3121 17.2874C32.775 17.8184 31.586 18.6163 30.7914 19.7053L31.5992 20.2947ZM34.636 18.2335C36.0603 17.7502 37.8815 17.5 40.1153 17.5V16.5C37.8158 16.5 35.877 16.7564 34.3147 17.2865L34.636 18.2335ZM40.1153 17.5H44.6753V16.5H40.1153V17.5ZM44.1753 17V21.36H45.1753V17H44.1753ZM44.6753 20.86H41.5553V21.86H44.6753V20.86ZM41.5553 20.86C40.5591 20.86 39.7265 21.0224 39.147 21.4315L39.7237 22.2485C40.0508 22.0176 40.6315 21.86 41.5553 21.86V20.86ZM39.1521 21.428C38.5633 21.8327 38.2953 22.4569 38.2953 23.2H39.2953C39.2953 22.7165 39.454 22.4339 39.7186 22.252L39.1521 21.428ZM38.2953 23.2C38.2953 23.8466 38.5405 24.4057 39.0151 24.8464L39.6955 24.1136C39.4234 23.8609 39.2953 23.5668 39.2953 23.2H38.2953ZM39.043 24.8704C39.5553 25.2803 40.2097 25.46 40.9553 25.46V24.46C40.3676 24.46 39.9553 24.3197 39.6677 24.0896L39.043 24.8704ZM40.9553 25.46C41.6608 25.46 42.3138 25.2744 42.9023 24.9027L42.3683 24.0573C41.9435 24.3256 41.4765 24.46 40.9553 24.46V25.46ZM42.9078 24.8992C43.5535 24.4795 44.001 23.844 44.2697 23.0381L43.321 22.7219C43.1096 23.356 42.7838 23.7871 42.3628 24.0608L42.9078 24.8992ZM43.3365 23.0786L44.4965 25.7586L45.4142 25.3614L44.2542 22.6814L43.3365 23.0786ZM44.4663 25.4558C44.1399 26.9871 43.4628 28.0802 42.4647 28.7931L43.0459 29.6069C44.2878 28.7198 45.0774 27.3862 45.4443 25.6642L44.4663 25.4558ZM42.4647 28.7931C41.456 29.5136 40.0627 29.9 38.2353 29.9V30.9C40.1946 30.9 41.8146 30.4864 43.0459 29.6069L42.4647 28.7931ZM76.5022 8.76L76.2751 9.20551L76.2821 9.20896L76.5022 8.76ZM79.7022 11.92L79.2616 12.1566L79.2651 12.1628L79.7022 11.92ZM80.9022 30V30.5H81.4022V30H80.9022ZM71.8622 30H71.3622V30.5H71.8622V30ZM71.1422 16.2L70.7551 16.5167L70.7626 16.5254L71.1422 16.2ZM67.4622 15.76L67.6951 16.2025L67.7031 16.1981L67.4622 15.76ZM66.2222 17.12L65.775 16.8964L65.7712 16.904L65.7677 16.9117L66.2222 17.12ZM65.7822 30V30.5H66.2822V30H65.7822ZM56.7422 30H56.2422V30.5H56.7422V30ZM56.7422 8.12V7.62H56.2422V8.12H56.7422ZM65.3422 8.12H65.8422V7.62H65.3422V8.12ZM65.3422 14.52L64.9769 14.8614L65.8422 15.7871V14.52H65.3422ZM63.6222 12.68L63.1779 12.4507L63.0162 12.7639L63.2569 13.0214L63.6222 12.68ZM67.0622 8.96L66.8167 8.52441L66.8133 8.52637L67.0622 8.96ZM71.9422 8.22C73.5513 8.22 74.9923 8.55147 76.2751 9.20545L76.7293 8.31455C75.2921 7.58186 73.6931 7.22 71.9422 7.22V8.22ZM76.2821 9.20896C77.5407 9.82591 78.5337 10.801 79.2617 12.1566L80.1427 11.6834C79.324 10.159 78.1837 9.02742 76.7223 8.31104L76.2821 9.20896ZM79.2651 12.1628C80.0108 13.5051 80.4022 15.28 80.4022 17.52H81.4022C81.4022 15.1733 80.9936 13.2149 80.1393 11.6772L79.2651 12.1628ZM80.4022 17.52V30H81.4022V17.52H80.4022ZM80.9022 29.5H71.8622V30.5H80.9022V29.5ZM72.3622 30V19.08H71.3622V30H72.3622ZM72.3622 19.08C72.3622 17.6897 72.1225 16.5754 71.5218 15.8746L70.7626 16.5254C71.1219 16.9446 71.3622 17.7503 71.3622 19.08H72.3622ZM71.5292 15.8834C70.9448 15.1692 70.1433 14.82 69.1822 14.82V15.82C69.8744 15.82 70.3796 16.0575 70.7552 16.5166L71.5292 15.8834ZM69.1822 14.82C68.4853 14.82 67.829 14.9876 67.2212 15.3219L67.7031 16.1981C68.1621 15.9457 68.6524 15.82 69.1822 15.82V14.82ZM67.2293 15.3175C66.6092 15.6439 66.13 16.1864 65.775 16.8964L66.6694 17.3436C66.9544 16.7736 67.3019 16.4094 67.6951 16.2025L67.2293 15.3175ZM65.7677 16.9117C65.4324 17.6432 65.2822 18.5905 65.2822 19.72H66.2822C66.2822 18.6629 66.4253 17.8768 66.6767 17.3283L65.7677 16.9117ZM65.2822 19.72V30H66.2822V19.72H65.2822ZM65.7822 29.5H56.7422V30.5H65.7822V29.5ZM57.2422 30V8.12H56.2422V30H57.2422ZM56.7422 8.62H65.3422V7.62H56.7422V8.62ZM64.8422 8.12V14.52H65.8422V8.12H64.8422ZM65.7075 14.1786L63.9874 12.3386L63.2569 13.0214L64.9769 14.8614L65.7075 14.1786ZM64.0665 12.9093C64.8812 11.3308 65.9644 10.1668 67.3111 9.39363L66.8133 8.52637C65.28 9.40656 64.0698 10.7225 63.1779 12.4507L64.0665 12.9093ZM67.3077 9.39557C68.6948 8.61374 70.2361 8.22 71.9422 8.22V7.22C70.075 7.22 68.3629 7.65292 66.8167 8.52442L67.3077 9.39557ZM90.6375 30L90.1736 30.1866L90.2997 30.5H90.6375V30ZM81.8375 8.12V7.62H81.0975L81.3736 8.30657L81.8375 8.12ZM91.1175 8.12L91.5855 7.94397L91.4636 7.62H91.1175V8.12ZM97.7975 25.88V26.38H98.5198L98.2655 25.704L97.7975 25.88ZM93.1175 25.88L92.6534 25.6939L92.3784 26.38H93.1175V25.88ZM100.238 8.12V7.62H99.8993L99.7734 7.93394L100.238 8.12ZM108.798 8.12L109.261 8.30657L109.538 7.62H108.798V8.12ZM99.9975 30V30.5H100.335L100.461 30.1866L99.9975 30ZM91.1014 29.8134L82.3014 7.93343L81.3736 8.30657L90.1736 30.1866L91.1014 29.8134ZM81.8375 8.62H91.1175V7.62H81.8375V8.62ZM90.6495 8.29602L97.3295 26.056L98.2655 25.704L91.5855 7.94397L90.6495 8.29602ZM97.7975 25.38H93.1175V26.38H97.7975V25.38ZM93.5816 26.0661L100.702 8.30605L99.7734 7.93394L92.6534 25.6939L93.5816 26.0661ZM100.238 8.62H108.798V7.62H100.238V8.62ZM108.334 7.93343L99.5336 29.8134L100.461 30.1866L109.261 8.30657L108.334 7.93343ZM99.9975 29.5H90.6375V30.5H99.9975V29.5ZM122.638 30H122.138V30.5H122.638V30ZM122.638 26.12H123.138V25.9785L123.064 25.858L122.638 26.12ZM121.998 25.08H121.498V25.2215L121.573 25.342L121.998 25.08ZM120.998 15.28L120.669 15.6564L120.677 15.6629L120.998 15.28ZM114.838 14.92L114.978 15.4004L114.989 15.3968L114.838 14.92ZM112.238 16.16L111.788 16.3775L112.051 16.9211L112.536 16.5618L112.238 16.16ZM109.358 10.2L109.093 9.776L108.713 10.0137L108.908 10.4175L109.358 10.2ZM113.958 8.36L114.075 8.84632L113.958 8.36ZM127.918 10.24L127.602 10.627L127.604 10.629L127.918 10.24ZM131.038 30V30.5H131.538V30H131.038ZM111.958 29.48L111.731 29.9252L111.958 29.48ZM109.238 27.04L108.808 27.294L108.811 27.2989L109.238 27.04ZM109.398 20L109.802 20.2947L109.398 20ZM112.678 17.76L112.518 17.2865L112.515 17.2874L112.678 17.76ZM122.878 17H123.378V16.5H122.878V17ZM122.878 21.36V21.86H123.378V21.36H122.878ZM117.638 21.84L117.922 22.2521L117.927 22.2485L117.638 21.84ZM117.558 24.48L117.218 24.8464L117.232 24.8589L117.246 24.8704L117.558 24.48ZM120.838 24.48L121.105 24.9028L121.111 24.8992L120.838 24.48ZM121.998 22.88L122.457 22.6814L121.938 21.481L121.524 22.7219L121.998 22.88ZM123.158 25.56L123.647 25.6642L123.681 25.508L123.617 25.3614L123.158 25.56ZM120.958 29.2L120.668 28.7931L120.958 29.2ZM123.138 30V26.12H122.138V30H123.138ZM123.064 25.858L122.424 24.818L121.573 25.342L122.213 26.382L123.064 25.858ZM122.498 25.08V17.72H121.498V25.08H122.498ZM122.498 17.72C122.498 16.542 122.125 15.5733 121.32 14.8971L120.677 15.6629C121.205 16.1067 121.498 16.7646 121.498 17.72H122.498ZM121.328 14.9037C120.55 14.2235 119.346 13.94 117.838 13.94V14.94C119.264 14.94 120.167 15.2165 120.669 15.6563L121.328 14.9037ZM117.838 13.94C116.797 13.94 115.746 14.109 114.688 14.4432L114.989 15.3968C115.957 15.091 116.907 14.94 117.838 14.94V13.94ZM114.699 14.4397C113.639 14.7467 112.716 15.1838 111.941 15.7582L112.536 16.5618C113.201 16.0695 114.011 15.68 114.977 15.4003L114.699 14.4397ZM112.689 15.9425L109.809 9.98245L108.908 10.4175L111.788 16.3775L112.689 15.9425ZM109.623 10.624C110.849 9.85814 112.33 9.26305 114.075 8.84632L113.842 7.87367C112.014 8.31028 110.428 8.94185 109.093 9.776L109.623 10.624ZM114.075 8.84632C115.826 8.42805 117.534 8.22 119.198 8.22V7.22C117.45 7.22 115.664 7.43861 113.842 7.87367L114.075 8.84632ZM119.198 8.22C122.89 8.22 125.669 9.04526 127.602 10.627L128.235 9.85302C126.062 8.07474 123.027 7.22 119.198 7.22V8.22ZM127.604 10.629C129.528 12.1824 130.538 14.679 130.538 18.24H131.538C131.538 14.4943 130.469 11.6576 128.233 9.85103L127.604 10.629ZM130.538 18.24V30H131.538V18.24H130.538ZM131.038 29.5H122.638V30.5H131.038V29.5ZM116.438 29.9C114.706 29.9 113.296 29.6023 112.186 29.0348L111.731 29.9252C113.02 30.5843 114.597 30.9 116.438 30.9V29.9ZM112.186 29.0348C111.057 28.4578 110.225 27.7044 109.666 26.7811L108.811 27.2989C109.479 28.4022 110.46 29.2756 111.731 29.9252L112.186 29.0348ZM109.669 26.786C109.103 25.826 108.818 24.7676 108.818 23.6H107.818C107.818 24.9391 108.147 26.174 108.808 27.294L109.669 26.786ZM108.818 23.6C108.818 22.2754 109.154 21.1829 109.802 20.2947L108.995 19.7053C108.203 20.7905 107.818 22.098 107.818 23.6H108.818ZM109.802 20.2947C110.448 19.4103 111.445 18.715 112.842 18.2326L112.515 17.2874C110.978 17.8184 109.789 18.6163 108.995 19.7053L109.802 20.2947ZM112.839 18.2335C114.263 17.7502 116.085 17.5 118.318 17.5V16.5C116.019 16.5 114.08 16.7564 112.518 17.2865L112.839 18.2335ZM118.318 17.5H122.878V16.5H118.318V17.5ZM122.378 17V21.36H123.378V17H122.378ZM122.878 20.86H119.758V21.86H122.878V20.86ZM119.758 20.86C118.762 20.86 117.93 21.0224 117.35 21.4315L117.927 22.2485C118.254 22.0176 118.835 21.86 119.758 21.86V20.86ZM117.355 21.428C116.766 21.8327 116.498 22.4569 116.498 23.2H117.498C117.498 22.7165 117.657 22.4339 117.922 22.252L117.355 21.428ZM116.498 23.2C116.498 23.8466 116.744 24.4057 117.218 24.8464L117.899 24.1136C117.627 23.8609 117.498 23.5668 117.498 23.2H116.498ZM117.246 24.8704C117.758 25.2803 118.413 25.46 119.158 25.46V24.46C118.571 24.46 118.158 24.3197 117.871 24.0896L117.246 24.8704ZM119.158 25.46C119.864 25.46 120.517 25.2744 121.105 24.9027L120.571 24.0573C120.147 24.3256 119.68 24.46 119.158 24.46V25.46ZM121.111 24.8992C121.757 24.4795 122.204 23.844 122.473 23.0381L121.524 22.7219C121.313 23.356 120.987 23.7871 120.566 24.0608L121.111 24.8992ZM121.54 23.0786L122.7 25.7586L123.617 25.3614L122.457 22.6814L121.54 23.0786ZM122.669 25.4558C122.343 26.9871 121.666 28.0802 120.668 28.7931L121.249 29.6069C122.491 28.7198 123.28 27.3862 123.647 25.6642L122.669 25.4558ZM120.668 28.7931C119.659 29.5136 118.266 29.9 116.438 29.9V30.9C118.398 30.9 120.018 30.4864 121.249 29.6069L120.668 28.7931ZM137.985 29.8L137.878 30.2883L137.985 29.8ZM133.585 28.24L133.124 28.0479L132.954 28.4552L133.337 28.6741L133.585 28.24ZM136.065 22.28L136.319 21.8493L135.824 21.5575L135.604 22.0879L136.065 22.28ZM139.665 23.72L139.542 24.2045L139.544 24.2051L139.665 23.72ZM145.905 23.96L145.694 23.5067L145.682 23.5128L145.905 23.96ZM145.825 22.52L145.659 22.9915L145.671 22.9959L145.684 22.9997L145.825 22.52ZM141.545 21.88L141.47 22.3744L141.479 22.3756L141.487 22.3766L141.545 21.88ZM138.865 21.32L138.737 21.8034L138.865 21.32ZM136.385 20.24L136.115 20.6606L136.385 20.24ZM134.585 18.32L134.147 18.5604L134.15 18.5665L134.585 18.32ZM135.145 11.44L134.748 11.1369L134.743 11.1431L135.145 11.44ZM138.905 8.76L139.092 9.22374L139.096 9.22219L138.905 8.76ZM149.905 8.16L149.815 8.6518L149.905 8.16ZM154.025 9.52L154.487 9.71209L154.661 9.29313L154.261 9.07911L154.025 9.52ZM151.545 15.48L151.305 15.9185L151.793 16.1858L152.007 15.6721L151.545 15.48ZM148.225 14.24L148.116 14.7278L148.123 14.7294L148.13 14.7307L148.225 14.24ZM142.865 14.2L142.642 13.7526L142.63 13.7588L142.865 14.2ZM142.945 15.64L143.112 15.1685V15.1685L142.945 15.64ZM144.745 16L144.799 15.5028L144.745 16ZM147.185 16.32L147.11 16.8144L147.119 16.8156L147.127 16.8166L147.185 16.32ZM149.865 16.88L149.72 17.3585L149.729 17.3611L149.737 17.3634L149.865 16.88ZM152.345 17.96L152.616 17.5394L152.345 17.96ZM154.145 19.92L153.707 20.1604L153.71 20.1665L154.145 19.92ZM153.585 26.68L153.988 26.9769L153.991 26.9724L153.585 26.68ZM149.825 29.4L150.01 29.8648L150.016 29.8622L149.825 29.4ZM143.505 29.9C141.675 29.9 139.871 29.7039 138.093 29.3117L137.878 30.2883C139.727 30.6961 141.603 30.9 143.505 30.9V29.9ZM138.093 29.3117C136.309 28.9183 134.895 28.4125 133.833 27.8059L133.337 28.6741C134.516 29.3475 136.035 29.8817 137.878 30.2883L138.093 29.3117ZM134.047 28.4321L136.527 22.4721L135.604 22.0879L133.124 28.0479L134.047 28.4321ZM135.811 22.7107C136.898 23.3516 138.143 23.848 139.542 24.2045L139.789 23.2355C138.467 22.8987 137.313 22.4351 136.319 21.8493L135.811 22.7107ZM139.544 24.2051C140.967 24.5607 142.354 24.74 143.705 24.74V23.74C142.443 23.74 141.137 23.5726 139.787 23.2349L139.544 24.2051ZM143.705 24.74C144.264 24.74 144.743 24.7163 145.138 24.666C145.525 24.6168 145.867 24.538 146.129 24.4072L145.682 23.5128C145.57 23.5686 145.359 23.6298 145.012 23.674C144.674 23.7171 144.24 23.74 143.705 23.74V24.74ZM146.117 24.4131C146.615 24.1807 147.005 23.7878 147.005 23.2H146.005C146.005 23.2522 145.996 23.3659 145.694 23.5069L146.117 24.4131ZM147.005 23.2C147.005 22.9071 146.896 22.6434 146.689 22.4364C146.495 22.2425 146.238 22.1202 145.966 22.0403L145.684 22.9997C145.866 23.0531 145.949 23.1108 145.982 23.1436C145.996 23.1577 146 23.1662 146.001 23.169C146.002 23.1718 146.005 23.1803 146.005 23.2H147.005ZM145.992 22.0485C145.487 21.8705 144.845 21.7449 144.079 21.6628L143.972 22.6572C144.699 22.7351 145.257 22.8495 145.659 22.9915L145.992 22.0485ZM144.079 21.6628C143.334 21.5831 142.509 21.4899 141.604 21.3834L141.487 22.3766C142.395 22.4834 143.223 22.5769 143.972 22.6572L144.079 21.6628ZM141.62 21.3856C140.759 21.2552 139.883 21.0723 138.993 20.8366L138.737 21.8034C139.661 22.0477 140.572 22.2382 141.47 22.3744L141.62 21.3856ZM138.993 20.8366C138.134 20.6092 137.356 20.2696 136.656 19.8194L136.115 20.6606C136.908 21.1704 137.783 21.5508 138.737 21.8034L138.993 20.8366ZM136.656 19.8194C135.98 19.3848 135.435 18.8056 135.02 18.0735L134.15 18.5665C134.642 19.4344 135.298 20.1352 136.115 20.6606L136.656 19.8194ZM135.024 18.0796C134.622 17.3469 134.405 16.396 134.405 15.2H133.405C133.405 16.5107 133.642 17.6398 134.147 18.5604L135.024 18.0796ZM134.405 15.2C134.405 13.9207 134.784 12.7713 135.548 11.7369L134.743 11.1431C133.853 12.3487 133.405 13.706 133.405 15.2H134.405ZM135.543 11.743C136.329 10.7113 137.5 9.86558 139.092 9.22372L138.718 8.29628C137.003 8.98775 135.668 9.92873 134.748 11.137L135.543 11.743ZM139.096 9.22219C140.698 8.5609 142.696 8.22 145.105 8.22V7.22C142.608 7.22 140.472 7.57243 138.715 8.29781L139.096 9.22219ZM145.105 8.22C146.675 8.22 148.244 8.36383 149.815 8.6518L149.995 7.6682C148.366 7.3695 146.736 7.22 145.105 7.22V8.22ZM149.815 8.6518C151.376 8.93804 152.698 9.37719 153.789 9.96089L154.261 9.07911C153.059 8.43614 151.634 7.96862 149.995 7.6682L149.815 8.6518ZM153.564 9.32791L151.084 15.2879L152.007 15.6721L154.487 9.71209L153.564 9.32791ZM151.785 15.0415C150.627 14.4069 149.472 13.9738 148.321 13.7493L148.13 14.7307C149.166 14.9329 150.224 15.3264 151.305 15.9185L151.785 15.0415ZM148.335 13.7522C147.238 13.5054 146.201 13.38 145.225 13.38V14.38C146.116 14.38 147.079 14.4946 148.116 14.7278L148.335 13.7522ZM145.225 13.38C144.638 13.38 144.131 13.4072 143.708 13.4645C143.291 13.521 142.926 13.6106 142.642 13.7528L143.089 14.6472C143.231 14.576 143.472 14.5056 143.842 14.4555C144.206 14.4062 144.666 14.38 145.225 14.38V13.38ZM142.63 13.7588C142.186 13.9956 141.765 14.3646 141.765 14.92H142.765C142.765 14.9175 142.765 14.9147 142.768 14.9086C142.771 14.9015 142.779 14.8851 142.799 14.8601C142.844 14.8067 142.934 14.73 143.101 14.6412L142.63 13.7588ZM141.765 14.92C141.765 15.2121 141.874 15.4737 142.072 15.6833C142.259 15.8814 142.509 16.0162 142.779 16.1115L143.112 15.1685C142.928 15.1038 142.838 15.0386 142.799 14.9967C142.77 14.9663 142.765 14.9479 142.765 14.92H141.765ZM142.779 16.1115C143.283 16.2895 143.926 16.4151 144.692 16.4972L144.799 15.5028C144.072 15.4249 143.514 15.3105 143.112 15.1685L142.779 16.1115ZM144.692 16.4972C145.43 16.5763 146.236 16.6819 147.11 16.8144L147.26 15.8256C146.374 15.6914 145.554 15.5837 144.799 15.5028L144.692 16.4972ZM147.127 16.8166C148.004 16.9198 148.868 17.1003 149.72 17.3585L150.01 16.4015C149.102 16.1263 148.18 15.9336 147.244 15.8234L147.127 16.8166ZM149.737 17.3634C150.596 17.5908 151.375 17.9304 152.075 18.3806L152.616 17.5394C151.823 17.0296 150.948 16.6492 149.993 16.3966L149.737 17.3634ZM152.075 18.3806C152.747 18.8127 153.291 19.4022 153.707 20.1604L154.584 19.6796C154.093 18.7845 153.437 18.0673 152.616 17.5394L152.075 18.3806ZM153.71 20.1665C154.108 20.8689 154.325 21.803 154.325 23H155.325C155.325 21.6903 155.089 20.5711 154.58 19.6735L153.71 20.1665ZM154.325 23C154.325 24.193 153.95 25.3187 153.18 26.3876L153.991 26.9724C154.874 25.7479 155.325 24.4203 155.325 23H154.325ZM153.183 26.3831C152.425 27.4105 151.255 28.2689 149.635 28.9378L150.016 29.8622C151.755 29.1445 153.093 28.1895 153.988 26.9769L153.183 26.3831ZM149.641 28.9353C148.038 29.5713 145.999 29.9 143.505 29.9V30.9C146.078 30.9 148.253 30.562 150.01 29.8647L149.641 28.9353ZM178.635 13.92V13.42H178.135V13.92H178.635ZM190.955 13.92H191.455V13.42H190.955V13.92ZM190.955 21.04V21.54H191.455V21.04H190.955ZM178.635 21.04H178.135V21.54H178.635V21.04ZM179.275 30V30.5H179.775V30H179.275ZM169.835 30H169.335V30.5H169.835V30ZM169.835 2V1.5H169.335V2H169.835ZM192.595 2H193.095V1.5H192.595V2ZM192.595 9.12V9.62H193.095V9.12H192.595ZM179.275 9.12V8.62H178.775V9.12H179.275ZM178.635 14.42H190.955V13.42H178.635V14.42ZM190.455 13.92V21.04H191.455V13.92H190.455ZM190.955 20.54H178.635V21.54H190.955V20.54ZM179.135 21.04V13.92H178.135V21.04H179.135ZM179.275 29.5H169.835V30.5H179.275V29.5ZM170.335 30V2H169.335V30H170.335ZM169.835 2.5H192.595V1.5H169.835V2.5ZM192.095 2V9.12H193.095V2H192.095ZM192.595 8.62H179.275V9.62H192.595V8.62ZM178.775 9.12V30H179.775V9.12H178.775ZM199.866 28.96L199.635 29.4035L199.643 29.4072L199.866 28.96ZM195.386 24.92L194.965 25.1897L195.386 24.92ZM195.386 13.16L194.965 12.8903L195.386 13.16ZM199.866 9.16L199.643 8.71278L199.64 8.71405L199.866 9.16ZM213.066 9.16L212.843 9.60721L213.066 9.16ZM217.546 13.16L217.122 13.425L217.125 13.4297L217.546 13.16ZM217.546 24.92L217.125 24.6503L217.122 24.655L217.546 24.92ZM213.066 28.96L213.29 29.4072L213.295 29.4047L213.066 28.96ZM208.266 22.88L208.009 22.4513L208.266 22.88ZM209.546 21.44L209.994 21.6636L209.997 21.6564L209.546 21.44ZM209.546 16.68L209.099 16.9036L209.103 16.9113L209.546 16.68ZM208.266 15.24L208.009 15.6687L208.266 15.24ZM204.666 15.24L204.409 14.8113L204.666 15.24ZM203.386 16.68L203.83 16.9113L203.833 16.9036L203.386 16.68ZM203.386 21.44L202.935 21.6564L202.939 21.6636L203.386 21.44ZM204.666 22.88L204.409 23.3087L204.666 22.88ZM206.466 29.9C204.052 29.9 201.93 29.4331 200.09 28.5128L199.643 29.4072C201.642 30.4069 203.921 30.9 206.466 30.9V29.9ZM200.097 28.5166C198.277 27.568 196.851 26.2795 195.807 24.6503L194.965 25.1897C196.108 26.9738 197.669 28.3786 199.635 29.4034L200.097 28.5166ZM195.807 24.6503C194.77 23.0315 194.246 21.1669 194.246 19.04H193.246C193.246 21.3398 193.816 23.3952 194.965 25.1897L195.807 24.6503ZM194.246 19.04C194.246 16.9131 194.77 15.0485 195.807 13.4297L194.965 12.8903C193.816 14.6848 193.246 16.7402 193.246 19.04H194.246ZM195.807 13.4297C196.85 11.8017 198.275 10.5276 200.092 9.60595L199.64 8.71405C197.671 9.71238 196.109 11.1049 194.965 12.8903L195.807 13.4297ZM200.09 9.60721C201.93 8.68695 204.052 8.22 206.466 8.22V7.22C203.921 7.22 201.642 7.71305 199.643 8.71279L200.09 9.60721ZM206.466 8.22C208.881 8.22 211.002 8.68695 212.843 9.60721L213.29 8.71279C211.29 7.71305 209.012 7.22 206.466 7.22V8.22ZM212.843 9.60721C214.686 10.5289 216.108 11.8016 217.122 13.425L217.97 12.895C216.852 11.1051 215.286 9.71108 213.29 8.71279L212.843 9.60721ZM217.125 13.4297C218.162 15.0485 218.686 16.9131 218.686 19.04H219.686C219.686 16.7402 219.117 14.6848 217.967 12.8903L217.125 13.4297ZM218.686 19.04C218.686 21.1669 218.162 23.0315 217.125 24.6503L217.967 25.1897C219.117 23.3952 219.686 21.3398 219.686 19.04H218.686ZM217.122 24.655C216.107 26.2797 214.684 27.5667 212.838 28.5153L213.295 29.4047C215.289 28.38 216.852 26.9737 217.97 25.185L217.122 24.655ZM212.843 28.5128C211.002 29.4331 208.881 29.9 206.466 29.9V30.9C209.012 30.9 211.29 30.4069 213.29 29.4072L212.843 28.5128ZM206.466 23.86C207.217 23.86 207.907 23.6787 208.523 23.3087L208.009 22.4513C207.559 22.7213 207.049 22.86 206.466 22.86V23.86ZM208.523 23.3087C209.15 22.9328 209.637 22.3756 209.993 21.6636L209.099 21.2164C208.815 21.7844 208.449 22.1872 208.009 22.4513L208.523 23.3087ZM209.997 21.6564C210.357 20.9069 210.526 20.0292 210.526 19.04H209.526C209.526 19.9175 209.376 20.6398 209.095 21.2236L209.997 21.6564ZM210.526 19.04C210.526 18.029 210.358 17.1557 209.99 16.4487L209.103 16.9113C209.374 17.431 209.526 18.131 209.526 19.04H210.526ZM209.993 16.4564C209.637 15.7444 209.15 15.1872 208.523 14.8113L208.009 15.6687C208.449 15.9328 208.815 16.3356 209.099 16.9036L209.993 16.4564ZM208.523 14.8113C207.907 14.4413 207.217 14.26 206.466 14.26V15.26C207.049 15.26 207.559 15.3987 208.009 15.6687L208.523 14.8113ZM206.466 14.26C205.716 14.26 205.026 14.4413 204.409 14.8113L204.923 15.6687C205.374 15.3987 205.883 15.26 206.466 15.26V14.26ZM204.409 14.8113C203.782 15.1872 203.295 15.7444 202.939 16.4564L203.833 16.9036C204.117 16.3356 204.483 15.9328 204.923 15.6687L204.409 14.8113ZM202.943 16.4487C202.574 17.1557 202.406 18.029 202.406 19.04H203.406C203.406 18.131 203.558 17.431 203.83 16.9113L202.943 16.4487ZM202.406 19.04C202.406 20.0292 202.576 20.9069 202.935 21.6564L203.837 21.2236C203.557 20.6398 203.406 19.9175 203.406 19.04H202.406ZM202.939 21.6636C203.295 22.3756 203.782 22.9328 204.409 23.3087L204.923 22.4513C204.483 22.1872 204.117 21.7844 203.833 21.2164L202.939 21.6636ZM204.409 23.3087C205.026 23.6787 205.716 23.86 206.466 23.86V22.86C205.883 22.86 205.374 22.7213 204.923 22.4513L204.409 23.3087ZM222.016 30H221.516V30.5H222.016V30ZM222.016 8.12V7.62H221.516V8.12H222.016ZM230.616 8.12H231.116V7.62H230.616V8.12ZM230.616 14.72L230.215 15.0186L231.116 16.2286V14.72H230.616ZM229.216 12.84L228.75 12.6581L228.649 12.9163L228.815 13.1386L229.216 12.84ZM232.416 9L232.164 8.56783L232.416 9ZM237.696 7.72H238.196V7.22H237.696V7.72ZM237.696 15.72L237.63 16.2156L238.196 16.2911V15.72H237.696ZM236.616 15.6L236.57 16.098L236.574 16.0983L236.616 15.6ZM232.336 16.64L232.651 17.0281L232.652 17.027L232.336 16.64ZM231.056 30V30.5H231.556V30H231.056ZM222.516 30V8.12H221.516V30H222.516ZM222.016 8.62H230.616V7.62H222.016V8.62ZM230.116 8.12V14.72H231.116V8.12H230.116ZM231.017 14.4214L229.617 12.5414L228.815 13.1386L230.215 15.0186L231.017 14.4214ZM229.681 13.0219C230.31 11.4115 231.306 10.224 232.667 9.43217L232.164 8.56783C230.592 9.48263 229.454 10.8552 228.75 12.6581L229.681 13.0219ZM232.667 9.43217C234.043 8.63174 235.712 8.22 237.696 8.22V7.22C235.572 7.22 233.722 7.66159 232.164 8.56783L232.667 9.43217ZM237.196 7.72V15.72H238.196V7.72H237.196ZM237.762 15.2244C237.356 15.1702 236.987 15.1292 236.657 15.1017L236.574 16.0983C236.884 16.1241 237.236 16.1631 237.63 16.2156L237.762 15.2244ZM236.661 15.1021C236.351 15.0739 236.029 15.06 235.696 15.06V16.06C236.002 16.06 236.293 16.0728 236.57 16.0979L236.661 15.1021ZM235.696 15.06C234.244 15.06 233.005 15.4463 232.019 16.253L232.652 17.027C233.426 16.3937 234.427 16.06 235.696 16.06V15.06ZM232.02 16.2519C230.996 17.084 230.556 18.483 230.556 20.28H231.556C231.556 18.6103 231.968 17.5826 232.651 17.0281L232.02 16.2519ZM230.556 20.28V30H231.556V20.28H230.556ZM231.056 29.5H222.016V30.5H231.056V29.5ZM249.49 30L249.032 29.7997L248.726 30.5H249.49V30ZM261.73 2V1.5H261.403L261.272 1.79973L261.73 2ZM271.01 2L271.468 1.79973L271.337 1.5H271.01V2ZM283.25 30V30.5H284.014L283.708 29.7997L283.25 30ZM273.49 30L273.023 30.1794L273.147 30.5H273.49V30ZM264.45 6.48V5.98H263.722L263.983 6.65938L264.45 6.48ZM268.13 6.48L268.597 6.65938L268.858 5.98H268.13V6.48ZM259.09 30V30.5H259.433L259.557 30.1794L259.09 30ZM256.77 25.12L256.298 24.9536L256.063 25.62H256.77V25.12ZM259.17 18.32V17.82H258.816L258.699 18.1536L259.17 18.32ZM272.05 18.32L272.521 18.1536L272.404 17.82H272.05V18.32ZM274.45 25.12V25.62H275.157L274.922 24.9536L274.45 25.12ZM249.948 30.2003L262.188 2.20027L261.272 1.79973L249.032 29.7997L249.948 30.2003ZM261.73 2.5H271.01V1.5H261.73V2.5ZM270.552 2.20027L282.792 30.2003L283.708 29.7997L271.468 1.79973L270.552 2.20027ZM283.25 29.5H273.49V30.5H283.25V29.5ZM273.957 29.8206L264.917 6.30062L263.983 6.65938L273.023 30.1794L273.957 29.8206ZM264.45 6.98H268.13V5.98H264.45V6.98ZM267.663 6.30062L258.623 29.8206L259.557 30.1794L268.597 6.65938L267.663 6.30062ZM259.09 29.5H249.49V30.5H259.09V29.5ZM257.241 25.2864L259.642 18.4864L258.699 18.1536L256.298 24.9536L257.241 25.2864ZM259.17 18.82H272.05V17.82H259.17V18.82ZM271.578 18.4864L273.979 25.2864L274.922 24.9536L272.521 18.1536L271.578 18.4864ZM274.45 24.62H256.77V25.62H274.45V24.62ZM284.477 30H283.977V30.5H284.477V30ZM284.477 0.319998V-0.180002H283.977V0.319998H284.477ZM293.517 0.319998H294.017V-0.180002H293.517V0.319998ZM293.517 30V30.5H294.017V30H293.517ZM284.977 30V0.319998H283.977V30H284.977ZM284.477 0.819998H293.517V-0.180002H284.477V0.819998ZM293.017 0.319998V30H294.017V0.319998H293.017ZM293.517 29.5H284.477V30.5H293.517V29.5ZM297.523 30H297.023V30.5H297.523V30ZM297.523 0.319998V-0.180002H297.023V0.319998H297.523ZM306.563 0.319998H307.063V-0.180002H306.563V0.319998ZM306.563 30V30.5H307.063V30H306.563ZM298.023 30V0.319998H297.023V30H298.023ZM297.523 0.819998H306.563V-0.180002H297.523V0.819998ZM306.063 0.319998V30H307.063V0.319998H306.063ZM306.563 29.5H297.523V30.5H306.563V29.5Z" fill="#878686"/>
<defs>
<linearGradient id="paint0_linear_56_7431" x1="314.838" y1="14.9999" x2="-0.763595" y2="11.5095" gradientUnits="userSpaceOnUse">
<stop stop-color="#7E91B8"/>
<stop offset="0.36547" stop-color="#2CCC59" stop-opacity="0.98"/>
<stop offset="0.777867" stop-color="#8ACA5E" stop-opacity="0.99381"/>
<stop offset="1" stop-color="#E0C45F"/>
</linearGradient>
</defs>
</svg>
